<?xml version="1.0" standalone="no"?>
<!DOCTYPE svg PUBLIC "-//W3C//DTD SVG 1.1//EN" "http://www.w3.org/Graphics/SVG/1.1/DTD/svg11.dtd" >
<svg>
<metadata>
Created by FontForge 20090914 at Fri Mar  2 17:27:29 2012
 By www-data
Copyright (c) 1989 Adobe Systems Incorporated.  All Rights Reserved.Trade Gothic is a trademark of Linotype AG and/or its subsidiaries.
</metadata>
<defs>
<font id="TradeGothic-BoldCondTwenty" horiz-adv-x="909" >
  <font-face 
    font-family="TradeGothic"
    font-weight="700"
    font-stretch="normal"
    units-per-em="2048"
    panose-1="0 0 0 0 0 0 0 0 0 0"
    ascent="1638"
    descent="-410"
    x-height="1102"
    cap-height="1479"
    bbox="-106 -483.001 2048 1974"
    underline-thickness="102"
    underline-position="-153"
    unicode-range="U+0020-U+FB04"
  />
<missing-glyph horiz-adv-x="454" 
 />
    <glyph glyph-name=".notdef" horiz-adv-x="454" 
 />
    <glyph glyph-name="space" unicode=" " horiz-adv-x="454" 
 />
    <glyph glyph-name="exclam" unicode="!" horiz-adv-x="569" 
d="M156 1479h258l-45 -1045h-168zM164 0v242h242v-242h-242z" />
    <glyph glyph-name="quotedbl" unicode="&#x22;" horiz-adv-x="681" 
d="M82 918v561h192v-561h-192zM408 918v561h192v-561h-192z" />
    <glyph glyph-name="numbersign" unicode="#" 
d="M20 438v160h156l31 283h-135v159h155l52 439h182l-51 -439h165l52 439h182l-51 -439h131v-159h-148l-32 -283h127v-160h-148l-49 -438h-184l51 438h-166l-49 -438h-187l52 438h-136zM360 598h164l33 283h-164z" />
    <glyph glyph-name="dollar" unicode="$" 
d="M61 231l170 128.997c32.667 -87.333 86.667 -141.666 162 -162.999v481c-94 57.333 -169.333 119.5 -226 186.5s-85 145.5 -85 235.5c0 98 27.667 182.5 83 253.5s131.333 112.833 228 125.5v180h123v-180c118.667 -23.333 213.667 -85.666 285 -186.999l-156 -133
c-40.667 69.333 -83.667 109 -129 119v-424c108 -68 190.333 -135.167 247 -201.5s85 -151.5 85 -255.5c0 -106.667 -29.333 -197.167 -88 -271.5s-140 -116.166 -244 -125.499v-238h-123v238c-131.333 13.333 -242 90.333 -332 231zM291 1126
c0 -75.333 33.999 -143.335 101.999 -204.002v356c-31.333 -9.33301 -56.166 -28.166 -74.499 -56.499s-27.5 -60.166 -27.5 -95.499zM515.999 196.995c76.667 30 115 93.333 115 190c0 46.667 -9.33301 85 -28 115s-47.667 62.667 -87 98v-403z" />
    <glyph glyph-name="percent" unicode="%" horiz-adv-x="1593" 
d="M102 1143c0 92.667 32.833 171.834 98.5 237.501s145 98.5 238 98.5s172.167 -32.833 237.5 -98.5s98 -144.834 98 -237.501s-32.667 -171.834 -98 -237.501s-144.5 -98.5 -237.5 -98.5s-172.333 32.833 -238 98.5s-98.5 144.834 -98.5 237.501zM266 1142.5
c0 -46.333 17.167 -86.5 51.5 -120.5s74.666 -51 120.999 -51s86.5 17 120.5 51s51 74.167 51 120.5s-17 86.666 -51 120.999s-74.167 51.5 -120.5 51.5s-86.666 -17.167 -120.999 -51.5s-51.5 -74.666 -51.5 -120.999zM303 -20l838 1519h153l-837 -1519h-154zM819 336
c0 92.667 32.833 171.834 98.5 237.501s144.834 98.5 237.501 98.5s171.834 -32.833 237.501 -98.5s98.5 -144.834 98.5 -237.501s-32.833 -171.834 -98.5 -237.501s-144.834 -98.5 -237.501 -98.5s-171.834 32.833 -237.501 98.5s-98.5 144.834 -98.5 237.501zM983 336
c0 -46.667 17 -87 51 -121s74.333 -51 121 -51s87 17 121 51s51 74.333 51 121s-17 87 -51 121s-74.333 51 -121 51s-87 -17 -121 -51s-51 -74.333 -51 -121z" />
    <glyph glyph-name="ampersand" unicode="&#x26;" horiz-adv-x="1138" 
d="M106 326c0 138 65.002 276.999 195.002 416.999c-78 173.333 -117 309.333 -117 408c0 104 27.667 188 83 252s135 96 239 96c92.667 0 166 -28 220 -84s81 -130.333 81 -223c0 -18 -1.33301 -36.167 -4 -54.5s-6.16699 -35 -10.5 -50s-10.833 -31.667 -19.5 -50
l-21.5 -46c-5.66699 -12.333 -15.334 -27.666 -29.001 -45.999l-30.5 -41c-6.66699 -9 -18.167 -23.5 -34.5 -43.5s-27.666 -33.333 -33.999 -40l-37 -39.5c-18.333 -19.667 -29.5 -32.5 -33.5 -38.5c53.333 -112 114.666 -212.333 183.999 -301
c46.667 120 76.667 211.667 90 275l209 -55c-4 -22 -9.66699 -45 -17 -69l-19.5 -61.5c-5.66699 -17 -14 -39.5 -25 -67.5l-23.5 -60.5c-4.66699 -12.333 -13.834 -34.833 -27.501 -67.5s-22.5 -53.334 -26.5 -62.001c42 -38 89 -61 141 -69v-225
c-112 2.66699 -207.333 40 -286 112c-79.333 -75.333 -176.333 -112.666 -291 -111.999c-106.667 0 -192.5 32 -257.5 96s-97.5 147.333 -97.5 250zM340.002 357.999c0 -44 14 -81.167 42 -111.5s63.833 -45.5 107.5 -45.5s82.5 14.333 116.5 43
c-90 108 -157.667 207 -203 297c-42 -64.667 -63 -125.667 -63 -183zM393.002 1206c0 -75.333 23.333 -169.999 70 -283.999c82 108 123 198 123 270c0 106.667 -30.667 160 -92 160c-67.333 -0.666992 -101 -49.334 -101 -146.001z" />
    <glyph glyph-name="quotesingle" unicode="'" horiz-adv-x="454" 
d="M131 918v561h193v-561h-193z" />
    <glyph glyph-name="parenleft" unicode="(" horiz-adv-x="569" 
d="M66 661.5c0 149 21.167 296.167 63.5 441.5s101.5 277.333 177.5 396h197c-161.333 -250 -242 -529.167 -242 -837.5s80.667 -587.5 242 -837.5h-197c-76.667 118.667 -136 250.667 -178 396s-63 292.5 -63 441.5z" />
    <glyph glyph-name="parenright" unicode=")" horiz-adv-x="569" 
d="M66 -176c161.333 250 241.833 529.167 241.5 837.5s-80.833 587.5 -241.5 837.5h196c76.667 -118.667 136.167 -250.667 178.5 -396s63.5 -292.5 63.5 -441.5s-21.167 -296.167 -63.5 -441.5s-101.833 -277.333 -178.5 -396h-196z" />
    <glyph glyph-name="asterisk" unicode="*" 
d="M86 1139l61.001 182.001c82 -49.333 169 -95 261 -137c-6.66699 87.333 -23.334 185.666 -50.001 294.999h193c-26 -109.333 -42.333 -207.666 -49 -294.999c91.333 42 178 87.667 260 137l61 -182c-19.333 -1.33301 -122.333 -13 -309 -35c87.333 -94 163 -167 227 -219
l-161 -113c-13.333 38 -55 133.667 -125 287c-69.333 -152.667 -111 -248.334 -125 -287.001l-162 113c64 52 139.667 125 227 219c-186.667 22 -289.667 33.667 -309 35z" />
    <glyph glyph-name="plus" unicode="+" horiz-adv-x="1228" 
d="M96 418v200h418v418h201v-418h418v-200h-418v-418h-201v418h-418z" />
    <glyph glyph-name="comma" unicode="," horiz-adv-x="454" 
d="M98 -254l101 254h-93v242h242v-242l-141 -254h-109z" />
    <glyph glyph-name="hyphen" unicode="-" horiz-adv-x="681" 
d="M90 457v188h502v-188h-502z" />
    <glyph glyph-name="period" unicode="." horiz-adv-x="454" 
d="M106 0v242h242v-242h-242z" />
    <glyph glyph-name="slash" unicode="/" horiz-adv-x="569" 
d="M-43 -20l455 1519h200l-454 -1519h-201z" />
    <glyph glyph-name="zero" unicode="0" 
d="M94 385v709c0 140.667 28.667 243.334 86 308.001s148.833 97 274.5 97s217.167 -32.333 274.5 -97s86 -167.334 86 -308.001v-709c0 -140.667 -28.667 -243.334 -86 -308.001s-148.833 -97 -274.5 -97s-217.167 32.333 -274.5 97s-86 167.334 -86 308.001zM336 322
c0 -94 39.5 -141.168 118.5 -141.501s118.5 46.834 118.5 141.501v835c0 94 -39.5 141 -118.5 141s-118.5 -47 -118.5 -141v-835z" />
    <glyph glyph-name="one" unicode="1" 
d="M162 1171v138.001c128.667 65.333 229 128.666 301 189.999h129v-1499h-230v1171h-200z" />
    <glyph glyph-name="two" unicode="2" 
d="M90 0l-0.000976562 199.001c186 270.667 313.833 468.667 383.5 594s104.5 237.666 104.5 336.999c0 112 -38.333 168 -115 168c-39.333 0 -69.666 -14 -90.999 -42s-32 -65 -32 -111v-101h-242v70c0 112 33.833 204.167 101.5 276.5s159.5 108.5 275.5 108.5
c101.333 0 184 -32.333 248 -97s96 -141.667 96 -231c0 -120 -30 -242.5 -90 -367.5s-187 -323.167 -381 -594.5h449v-209h-707z" />
    <glyph glyph-name="three" unicode="3" 
d="M94 340l-0.00195312 87.999h230v-100c0 -98 38 -147.333 114 -148c80.667 0 121 58 121 174v113c0 79.333 -16.333 134 -49 164s-88.667 45 -168 45v201c76.667 0 130.334 16 161.001 48s46 91 46 177c0 70.667 -7.83301 121 -23.5 151s-42.167 45 -79.5 45
c-38 0 -66.5 -11.167 -85.5 -33.5s-28.5 -61.5 -28.5 -117.5v-62h-230v70c0 102.667 30.833 185.667 92.5 249s146.5 95 254.5 95c104 0 184.833 -36.833 242.5 -110.5s86.5 -163.167 86.5 -268.5c0 -91.333 -10.833 -162.333 -32.5 -213s-64.167 -93 -127.5 -127
c72.667 -38 121.334 -82.667 146.001 -134s37 -128.666 37 -231.999c0 -147.333 -30 -256.5 -90 -327.5s-153 -106.5 -279 -106.5c-225.333 0 -338 120 -338 360z" />
    <glyph glyph-name="four" unicode="4" 
d="M33 356v189l430 934h246v-934h135v-189h-135v-356h-234v356h-442zM227 545h252v577h-4z" />
    <glyph glyph-name="five" unicode="5" 
d="M102 315v113h230v-119c0 -39.333 10.167 -70.666 30.5 -93.999s47.5 -35 81.5 -35c83.333 0 125 60 125 180v336c0 45.333 -9.83301 79.166 -29.5 101.499s-45.167 33.5 -76.5 33.5c-64 0 -109.667 -37.333 -137 -112h-197c12 344 18 597.333 18 760h617l-8 -209h-400
l-14 -320l4 -4c30 35.333 59 58.5 87 69.5s64 16.5 108 16.5c180 0 270 -129.667 270 -389v-205c0 -158.667 -27 -274.667 -81 -348s-141.667 -110 -263 -110c-110.667 0 -199.167 26.833 -265.5 80.5s-99.5 138.5 -99.5 254.5z" />
    <glyph glyph-name="six" unicode="6" 
d="M94 385l0.00195312 708.998c0 140.667 28.667 243.334 86 308.001s149 97 275 97c98 1.33301 177.333 -29 238 -91s91 -141 91 -237v-90h-221v76c0 94 -36 141 -108 141c-79.333 0 -119 -47 -119 -141v-346c36.667 36.667 68.667 62.167 96 76.5s65 21.5 113 21.5
c79.333 0 144.166 -24.833 194.499 -74.5s75.5 -125.834 75.5 -228.501v-176c0 -157.333 -28.333 -271.666 -85 -342.999s-148.334 -107 -275.001 -107c-125.333 0 -216.833 32.333 -274.5 97s-86.5 167.334 -86.5 308.001zM336.002 321.998
c0 -94 39.5 -141.168 118.5 -141.501s118.5 46.834 118.5 141.501v245c0 94 -35.333 141.333 -106 142c-31.333 0 -75 -22.667 -131 -68v-319z" />
    <glyph glyph-name="seven" unicode="7" 
d="M115 1270v209h667v-144l-301 -1335h-239l297 1270h-424z" />
    <glyph glyph-name="eight" unicode="8" 
d="M94 410c0 96.667 10.998 174.334 32.998 233.001s62.333 107 121 145c-88.667 64 -133 162.333 -133 295c0 139.333 29.667 243.5 89 312.5s142.833 103.5 250.5 103.5s191.334 -34.5 251.001 -103.5s89.5 -173.167 89.5 -312.5c0 -132.667 -44.333 -231 -133 -295
c58.667 -38 98.834 -86.333 120.501 -145s32.5 -136.334 32.5 -233.001c0 -139.333 -30.333 -245.833 -91 -319.5s-150.5 -110.5 -269.5 -110.5s-208.833 36.833 -269.5 110.5s-91 180.167 -91 319.5zM323.998 426c0 -164 43.667 -246 131 -246s131 82 131 246
s-43.667 246 -131 246s-131 -82 -131 -246zM343.998 1095.5c0 -71 8.5 -122.5 25.5 -154.5s45.333 -48 85 -48s68 16 85 48s25.5 83.5 25.5 154.5s-8.5 122.5 -25.5 154.5s-45.333 48 -85 48s-68 -16 -85 -48s-25.5 -83.5 -25.5 -154.5z" />
    <glyph glyph-name="nine" unicode="9" 
d="M94 872v177.003c0 157.333 28.333 271.666 85 342.999s148.667 107 276 107c125.333 0 216.666 -32.333 273.999 -97s86 -167.334 86 -308.001v-709c0 -140.667 -28.667 -243.334 -86 -308.001s-148.666 -97 -273.999 -97c-98 -1.33301 -177.5 29 -238.5 91
s-91.5 140.667 -91.5 236v90h221v-75c0 -94 36.333 -141.333 109 -142c79.333 0 118.666 47.333 117.999 142v346c-36.667 -36.667 -68.667 -62.334 -96 -77.001s-64.666 -22 -111.999 -22c-79.333 0 -144.333 24.833 -195 74.5s-76 125.834 -76 228.501zM336 911.003
c0 -94 35.333 -141 106 -141c31.333 0 75 22.667 131 68v319c0 94 -39.5 141 -118.5 141s-118.5 -47 -118.5 -141v-246z" />
    <glyph glyph-name="colon" unicode=":" horiz-adv-x="454" 
d="M106 0v242h242v-242h-242zM106 569v242h242v-242h-242z" />
    <glyph glyph-name="semicolon" unicode=";" horiz-adv-x="454" 
d="M98 -254l101 254h-93v242h242v-242l-141 -254h-109zM106 569v242h242v-242h-242z" />
    <glyph glyph-name="less" unicode="&#x3c;" horiz-adv-x="1228" 
d="M96 432v172l1037 432v-213l-748 -305l748 -305v-213z" />
    <glyph glyph-name="equal" unicode="=" horiz-adv-x="1228" 
d="M96 205v201h1037v-201h-1037zM96 631v200h1037v-200h-1037z" />
    <glyph glyph-name="greater" unicode="&#x3e;" horiz-adv-x="1228" 
d="M96 0v213l748 305l-748 305v213l1037 -432v-172z" />
    <glyph glyph-name="question" unicode="?" horiz-adv-x="796" 
d="M66 1229c62.667 180 186 270.001 370 270.001c79.333 0 148.333 -26.333 207 -79s88 -117.667 88 -195c0 -46.667 -7.5 -91.5 -22.5 -134.5s-28.333 -73.333 -40 -91s-33.167 -48.5 -64.5 -92.5c-27.333 -36.667 -48.5 -68 -63.5 -94s-29.333 -62.833 -43 -110.5
s-20.5 -100.167 -20.5 -157.5v-111h-196v172c0 105.333 35.333 223.666 106 354.999c4 8 12.5 23.5 25.5 46.5s21.833 39 26.5 48l20.5 41c9 18.333 15.167 33 18.5 44s6.83301 23.667 10.5 38s5.5 27.833 5.5 40.5c0 24.667 -8.33301 46.167 -25 64.5s-37 27.5 -61 27.5
c-69.333 0 -118 -52 -146 -156zM254 0.000976562v242h242v-242h-242z" />
    <glyph glyph-name="at" unicode="@" horiz-adv-x="1638" 
d="M82 739c0 217.333 74.665 398.334 223.998 543.001s331.333 217 546 217c190 0 354.833 -58.333 494.5 -175s209.5 -265 209.5 -445c0 -79.333 -12.833 -153.166 -38.5 -221.499s-58 -124 -97 -167s-81.667 -80.167 -128 -111.5s-90.333 -53.5 -132 -66.5
s-78.167 -19.5 -109.5 -19.5c-32.667 0 -60 9.16699 -82 27.5s-33.667 45.833 -35 82.5l-4 3c-68 -75.333 -141.667 -113 -221 -113c-87.333 0 -162.166 33.5 -224.499 100.5s-93.5 146.833 -93.5 239.5c0 135.333 41.333 255.166 124 359.499s188 156.5 316 156.5
c105.333 0 185.333 -44.333 240 -133l33 106h166l-129 -526c-9.33301 -38 -14.333 -64.667 -15 -80c0 -36.667 11 -55 33 -55c60 0 114.667 36.167 164 108.5s74 161.166 74 266.499c0 158.667 -51.667 282.167 -155 370.5s-234 132.5 -392 132.5
c-173.333 0 -314 -57 -422 -171s-162 -258.333 -162 -433s57.333 -317.667 172 -429s260 -167 436 -167c177.333 0 323 56.667 437 170h170c-69.333 -105.333 -158 -186.5 -266 -243.5s-225.667 -85.5 -353 -85.5c-221.333 0 -406.666 70.5 -555.999 211.5
s-224 323.5 -224 547.5zM595.998 659.001c0 -52 14.666 -95.333 43.999 -130s68 -52 116 -52c70.667 0 130.334 32.833 179.001 98.5s73 135.834 73 210.501c0 50.667 -15 93.167 -45 127.5s-67.667 51.5 -113 51.5c-70.667 0 -130.667 -32.833 -180 -98.5
s-74 -134.834 -74 -207.501z" />
    <glyph glyph-name="A" unicode="A" 
d="M25 0l272 1479h315l273 -1479h-246l-45 328h-279l-45 -328h-245zM352 549h205l-100 635h-4z" />
    <glyph glyph-name="B" unicode="B" horiz-adv-x="1024" 
d="M123 0v1479h377c262 0 393 -130.667 393 -392c0 -68 -14.667 -130.667 -44 -188s-73.333 -97.666 -132 -120.999c136.667 -60 205 -176.667 205 -350c0 -131.333 -32.167 -235.5 -96.5 -312.5s-164.833 -115.5 -301.5 -115.5h-401zM377 208.999h106
c65.333 0 112.5 18.833 141.5 56.5s43.5 94.5 43.5 170.5c0 78 -16.5 135.5 -49.5 172.5s-86.167 55.5 -159.5 55.5h-82v-455zM377 871.999h92c50.667 0 91.667 16.5 123 49.5s47 79.5 47 139.5c0 139.333 -55.333 209 -166 209h-96v-398z" />
    <glyph glyph-name="C" unicode="C" horiz-adv-x="1024" 
d="M123 358v761.999c0 110.667 33.167 201.5 99.5 272.5s162.833 106.5 289.5 106.5c121.333 0 214.5 -38.167 279.5 -114.5s97.5 -173.166 97.5 -290.499v-109h-254v115c0 58.667 -11.667 103 -35 133s-52.666 45 -87.999 45c-49.333 0 -84.166 -13 -104.499 -39
s-30.5 -67.667 -30.5 -125v-749c0 -57.333 10.167 -99 30.5 -125s55.166 -39 104.499 -39c45.333 0 77.166 12.167 95.499 36.5s27.5 61.833 27.5 112.5v178h254v-170c0 -110.667 -32.5 -201.334 -97.5 -272.001s-158.167 -106 -279.5 -106
c-126.667 0 -223.167 35.333 -289.5 106s-99.5 161.334 -99.5 272.001z" />
    <glyph glyph-name="D" unicode="D" horiz-adv-x="1024" 
d="M123 0v1479h377c267.333 0 401 -149 401 -447v-586c0 -297.333 -133.667 -446 -401 -446h-377zM377 209h88c68 0 115.333 15 142 45s40 84 40 162v647c0 78 -13.333 132 -40 162s-74 45 -142 45h-88v-1061z" />
    <glyph glyph-name="E" unicode="E" 
d="M123 0v1479h680v-222h-426v-380h328v-222h-328v-434h454v-221h-708z" />
    <glyph glyph-name="F" unicode="F" 
d="M123 0v1479h708v-222h-454v-380h340v-222h-340v-655h-254z" />
    <glyph glyph-name="G" unicode="G" horiz-adv-x="1024" 
d="M123 358v761.998c0 110.667 32 201.5 96 272.5s156.333 106.5 277 106.5c121.333 0 215.166 -38.167 281.499 -114.5s99.5 -173.166 99.5 -290.499v-95h-242c0 106.667 -11.333 179.834 -34 219.501s-60 59.5 -112 59.5c-75.333 0 -112.666 -54 -111.999 -162v-760
c0 -104 39.667 -155.667 119 -155c50.667 0 86.5 15.667 107.5 47s31.5 84 31.5 158v143h-162v201h416v-750h-123l-47 111c-39.333 -48 -77.5 -81.833 -114.5 -101.5s-84.167 -29.5 -141.5 -29.5c-101.333 0 -183.333 34 -246 102s-94 160 -94 276z" />
    <glyph glyph-name="H" unicode="H" horiz-adv-x="1024" 
d="M123 0v1479h254v-602h270v602h254v-1479h-254v655h-270v-655h-254z" />
    <glyph glyph-name="I" unicode="I" horiz-adv-x="569" 
d="M158 0v1479h254v-1479h-254z" />
    <glyph glyph-name="J" unicode="J" horiz-adv-x="569" 
d="M6 -20v221h53c48 0 82.333 9.83301 103 29.5s31 50.834 31 93.501v1155h253v-1184c0 -102.667 -26.167 -180.834 -78.5 -234.501s-144.833 -80.5 -277.5 -80.5h-84z" />
    <glyph glyph-name="K" unicode="K" 
d="M111 0v1479h254v-547h4l266 547h254l-275 -551l310 -928h-258l-207 688h-4l-90 -164v-524h-254z" />
    <glyph glyph-name="L" unicode="L" horiz-adv-x="796" 
d="M111 0v1479h254v-1258h399v-221h-653z" />
    <glyph glyph-name="M" unicode="M" horiz-adv-x="1251" 
d="M109 0v1479h333l181 -865h4l180 865h334v-1479h-221v1155h-5l-229 -1155h-123l-229 1155h-4v-1155h-221z" />
    <glyph glyph-name="N" unicode="N" horiz-adv-x="1024" 
d="M123 0v1479h235l310 -846h4v846h229v-1479h-221l-324 924h-4v-924h-229z" />
    <glyph glyph-name="O" unicode="O" horiz-adv-x="1024" 
d="M123 358v762c0 110.667 33.167 201.5 99.5 272.5s162.833 106.5 289.5 106.5s223.167 -35.5 289.5 -106.5s99.5 -161.833 99.5 -272.5v-762c0 -110.667 -33.167 -201.334 -99.5 -272.001s-162.833 -106 -289.5 -106s-223.167 35.333 -289.5 106
s-99.5 161.334 -99.5 272.001zM377 365c0 -57.333 10.167 -99 30.5 -125s55.166 -39 104.499 -39s84.166 13 104.499 39s30.5 67.667 30.5 125v749c0 57.333 -10.167 99 -30.5 125s-55.166 39 -104.499 39s-84.166 -13 -104.499 -39s-30.5 -67.667 -30.5 -125v-749z" />
    <glyph glyph-name="P" unicode="P" horiz-adv-x="1024" 
d="M123 0v1479h364c160 0 276.5 -33.833 349.5 -101.5s109.5 -179.334 109.5 -335.001s-36.5 -267.334 -109.5 -335.001s-189.5 -101.5 -349.5 -101.5h-110v-606h-254zM377 815.002h98c83.333 0 140.333 16 171 48s46 91.833 46 179.5s-15.333 147.5 -46 179.5
s-87.667 48 -171 48h-98v-455z" />
    <glyph glyph-name="Q" unicode="Q" horiz-adv-x="1024" 
d="M123 358l-0.00195312 761.999c0 110.667 33.167 201.5 99.5 272.5s162.833 106.5 289.5 106.5s223.167 -35.5 289.5 -106.5s99.5 -161.833 99.5 -272.5v-762c0 -72.667 -14.333 -136 -43 -190c40.667 -35.333 80.334 -54.333 119.001 -57v-222
c-53.333 0 -99.166 9 -137.499 27s-78.5 55 -120.5 111c-56 -31.333 -125 -47 -207 -47c-126.667 0 -223.167 35.333 -289.5 106s-99.5 161.334 -99.5 272.001zM376.998 364.999c0 -57.333 10.166 -99.001 30.499 -125.001s55.166 -39 104.499 -39
c38 0 66.667 7.33301 86 22c-18 32.667 -40.667 59.334 -68 80.001v225c46.667 -24.667 85.667 -54.667 117 -90v676c0 57.333 -10.167 99 -30.5 125s-55.166 39 -104.499 39s-84.166 -13 -104.499 -39s-30.5 -67.667 -30.5 -125v-749z" />
    <glyph glyph-name="R" unicode="R" horiz-adv-x="1024" 
d="M123 0l0.000976562 1479h356c146 0 254.167 -34.167 324.5 -102.5s105.5 -179.833 105.5 -334.5c0 -195.333 -59.333 -319.333 -178 -372l215 -670h-258l-180 612c-32.667 -4 -76.334 -6 -131.001 -6v-606h-254zM377.001 815h90c69.333 0 118 16.333 146 49s42 92 42 178
s-14 145.5 -42 178.5s-76.667 49.5 -146 49.5h-90v-455z" />
    <glyph glyph-name="S" unicode="S" 
d="M57 389l242.001 35.0029c5.33301 -72.667 21.333 -128 48 -166s61.334 -57 104.001 -57c45.333 0 81.166 11.5 107.499 34.5s39.5 56.5 39.5 100.5c0 53.333 -17.667 104.166 -53 152.499s-78.333 93 -129 134l-152 128c-50.667 44.333 -93.667 99.333 -129 165
s-53 137.167 -53 214.5c0 117.333 34.167 208.166 102.5 272.499s165.166 96.5 290.499 96.5c101.333 0 182.333 -32.667 243 -98s97 -152 109 -260l-241 -27c-4 58.667 -19 100.667 -45 126s-56 38 -90 38c-84.667 0 -127 -48.333 -127 -145
c0 -45.333 17.667 -90.833 53 -136.5s78.333 -89.334 129 -131.001s101.167 -85.667 151.5 -132s93.333 -102 129 -167s53.5 -134.5 53.5 -208.5c0 -120 -36.5 -213 -109.5 -279s-170.5 -99 -292.5 -99c-113.333 0 -203.833 39.167 -271.5 117.5
s-104.167 175.5 -109.5 291.5z" />
    <glyph glyph-name="T" unicode="T" horiz-adv-x="796" 
d="M25 1257v222h745v-222h-246v-1257h-254v1257h-245z" />
    <glyph glyph-name="U" unicode="U" horiz-adv-x="1024" 
d="M123 373v1106h254v-1117c0 -108 45 -161.833 135 -161.5s135 54.166 135 161.499v1117h254v-1106c0 -125.333 -34.5 -222.166 -103.5 -290.499s-164.167 -102.5 -285.5 -102.5s-216.5 34.167 -285.5 102.5s-103.5 165.166 -103.5 290.499z" />
    <glyph glyph-name="V" unicode="V" 
d="M18 1479h250l185 -1026h4l184 1026h250l-309 -1479h-254z" />
    <glyph glyph-name="W" unicode="W" horiz-adv-x="1366" 
d="M0 1479h238l155 -942h4l166 942h209l172 -942h4l142 942h237l-260 -1479h-213l-184 977h-4l-172 -977h-213z" />
    <glyph glyph-name="X" unicode="X" 
d="M29 0l290 774l-270 705h250l156 -469h4l141 469h250l-256 -705l287 -774h-250l-172 539h-4l-176 -539h-250z" />
    <glyph glyph-name="Y" unicode="Y" 
d="M20 1479h259l178 -564h4l170 564h258l-307 -865v-614h-254v614z" />
    <glyph glyph-name="Z" unicode="Z" 
d="M90 0v242l473 1015h-416v222h672v-242l-467 -1016h467v-221h-729z" />
    <glyph glyph-name="bracketleft" unicode="[" horiz-adv-x="569" 
d="M74 -156v1635h438v-99h-242v-1437h242v-99h-438z" />
    <glyph glyph-name="backslash" unicode="\" horiz-adv-x="569" 
d="M-43 1499h201l454 -1519h-200z" />
    <glyph glyph-name="bracketright" unicode="]" horiz-adv-x="569" 
d="M57 -57h242v1437h-242v99h439v-1635h-439v99z" />
    <glyph glyph-name="asciicircum" unicode="^" horiz-adv-x="1228" 
d="M115 618l389 861h221l389 -861h-223l-279 619l-278 -619h-219z" />
    <glyph glyph-name="underscore" unicode="_" horiz-adv-x="1024" 
d="M0 -154h1024v-102h-1024v102z" />
    <glyph glyph-name="grave" unicode="`" horiz-adv-x="454" 
d="M-66 1528h277l162 -295h-170z" />
    <glyph glyph-name="a" unicode="a" 
d="M70 227c0 117.333 38.832 213.668 116.499 289.001s201.834 145.666 372.501 210.999v66c0 94 -37.667 141 -113 141c-49.333 0 -82.833 -13 -100.5 -39s-27.834 -65 -30.501 -117h-229c5.33301 110.667 40.833 195.667 106.5 255s153.167 89 262.5 89
c108 0 190.5 -24.833 247.5 -74.5s85.5 -124.5 85.5 -224.5v-706c0 -20.667 5 -59.667 15 -117h-219c-1.33301 10.667 -3.83301 25.667 -7.5 45s-5.5 33 -5.5 41c-87.333 -70.667 -176.666 -106 -267.999 -106c-75.333 0 -133 22.667 -173 68s-60 105 -60 179z
M298.999 268.002c0 -66.667 35.667 -100 107 -100c54.667 0 105.667 34 153 102v289c-100 -57.333 -168.333 -107.5 -205 -150.5s-55 -89.833 -55 -140.5z" />
    <glyph glyph-name="b" unicode="b" 
d="M111 0l-0.000976562 1479h229v-471c38 31.333 65.167 52.833 81.5 64.5s38.5 22.834 66.5 33.501s58 16 90 16c72.667 0 129.667 -26.5 171 -79.5s62 -128.833 62 -227.5v-528c0 -98 -20.833 -173.667 -62.5 -227s-98.5 -80 -170.5 -80
c-56 0 -101.167 9.83301 -135.5 29.5s-71.166 54.834 -110.499 105.501h-4v-115h-217zM339.999 224.998c52 -38 95.667 -57 131 -57c74 0 111 59.333 111 178v410c0 118.667 -37 178 -111 178c-35.333 0 -79 -19 -131 -57v-652z" />
    <glyph glyph-name="c" unicode="c" 
d="M98 389v324.001c0 273.333 119 409.666 357 408.999c233.333 0 352 -132.333 356 -397h-229v29c0 120 -42.333 180 -127 180s-127 -60 -127 -180v-406c0 -120 42.333 -180 127 -180s127 60 127 180v70h229v-29c0 -273.333 -118.833 -410 -356.5 -410
s-356.5 136.667 -356.5 410z" />
    <glyph glyph-name="d" unicode="d" 
d="M98 287l-0.000976562 528.002c0 98 20.833 173.667 62.5 227s98.834 80 171.501 80c31.333 0 61 -5.33301 89 -16s50.167 -21.834 66.5 -33.501s43.5 -33.167 81.5 -64.5v471h230v-1479h-217v115h-4c-39.333 -50.667 -76.166 -85.834 -110.499 -105.501
s-79.5 -29.5 -135.5 -29.5c-72.667 0 -129.834 26.667 -171.501 80s-62.5 129 -62.5 227zM327.999 346.002c0 -118.667 36.667 -178 110 -178c35.333 0 79 19 131 57v652c-52 38 -95.667 57 -131 57c-74 0 -110.667 -59.333 -110 -178v-410z" />
    <glyph glyph-name="e" unicode="e" 
d="M98 389v324.001c0 273.333 118.833 409.833 356.5 409.5s356.5 -136.833 356.5 -409.5v-205h-483v-160c0 -120 42.333 -180 127 -180s127 60 127 180v25h229c-4 -262 -122.667 -393 -356 -393c-238 -0.666992 -357 135.666 -357 408.999zM328 696.001h254v58
c0 120 -42.333 180 -127 180s-127 -60 -127 -180v-58z" />
    <glyph glyph-name="f" unicode="f" horiz-adv-x="569" 
d="M20 913v189h136v137c0 173.333 85.333 260 256 260h114v-188h-65c-27.333 0 -46.833 -5.5 -58.5 -16.5s-17.5 -30.167 -17.5 -57.5v-135h131v-189h-131v-913h-229v913h-136z" />
    <glyph glyph-name="g" unicode="g" 
d="M37 -172c0 40.667 14.667 77.167 44 109.5s64.333 53.166 105 62.499v4c-69.333 27.333 -104 73.833 -104 139.5s46.333 125.167 139 178.5c-60 40.667 -99.5 85.5 -118.5 134.5s-28.5 135.833 -28.5 260.5c0 150 27 255 81 315s145.667 90 275 90
c101.333 0 186 -39.333 254 -118c32.667 48 60.667 79.667 84 95s58 23 104 23v-190c-8 1.33301 -20 2 -36 2c-45.333 0 -82.333 -11.667 -111 -35c16.667 -57.333 25 -115.333 25 -174c0 -162.667 -27.667 -277 -83 -343s-144 -99 -266 -99h-73c-30 -8 -45 -25 -45 -51
s20 -43.167 60 -51.5s89.167 -13.166 147.5 -14.499s116.5 -6.16602 174.5 -14.499s107 -31.833 147 -70.5s60 -94.334 60 -167.001c0 -174.667 -157 -262 -471 -262c-116 0 -205.667 15 -269 45s-95 73.667 -95 131zM279 -102c0 -30 13.5 -51.167 40.5 -63.5
s78.167 -18.5 153.5 -18.5s126.666 6.16699 153.999 18.5s41 33.5 41 63.5s-13.667 51.167 -41 63.5s-78.666 18.5 -153.999 18.5s-126.5 -6.16699 -153.5 -18.5s-40.5 -33.5 -40.5 -63.5zM291 702.5c0 -89 9.16895 -149.833 27.502 -182.5s47.5 -49 87.5 -49
c45.333 0 75.666 15.333 90.999 46s23 92.5 23 185.5s-7.83301 154.833 -23.5 185.5s-45.834 46 -90.501 46c-39.333 0 -68.333 -16.333 -87 -49s-28 -93.5 -28 -182.5z" />
    <glyph glyph-name="h" unicode="h" 
d="M111 0v1479h229v-480l79.5 67.5c15 12.333 39.333 24.666 73 36.999s71.5 18.5 113.5 18.5c60 0 107.167 -20.5 141.5 -61.5s51.5 -97.5 51.5 -169.5v-891h-230v854c0 53.333 -27.333 80 -82 80c-34 0 -83 -23.333 -147 -70v-864h-229z" />
    <glyph glyph-name="i" unicode="i" horiz-adv-x="454" 
d="M113 0v1102h229v-1102h-229zM113 1270v209h229v-209h-229z" />
    <glyph glyph-name="j" unicode="j" horiz-adv-x="454" 
d="M0 -139h39c57.333 0 86 28.667 86 86v1153h229v-1163c0 -190 -88.667 -285 -266 -285h-88v209zM125 1270v209h229v-209h-229z" />
    <glyph glyph-name="k" unicode="k" 
d="M111 0v1479h229v-766h4l252 389h246l-240 -348l266 -754h-231l-184 547h-4l-109 -162v-385h-229z" />
    <glyph glyph-name="l" unicode="l" horiz-adv-x="454" 
d="M113 0v1479h229v-1479h-229z" />
    <glyph glyph-name="m" unicode="m" horiz-adv-x="1366" 
d="M111 0l-0.00292969 1102h217v-111c72.667 61.333 122.334 98.333 149.001 111c31.333 13.333 66.333 20 105 20c54.667 0 94.834 -9.5 120.501 -28.5s52.167 -53.167 79.5 -102.5c53.333 52 98.5 86.833 135.5 104.5s77.167 26.5 120.5 26.5
c70.667 0 124.167 -20.5 160.5 -61.5s54.5 -97.5 54.5 -169.5v-891h-229v854c0 53.333 -27.333 80 -82 80c-35.333 0 -83.666 -23.333 -144.999 -70v-864h-230v854c0 53.333 -26.667 80 -80 80c-34 0 -83 -23.333 -147 -70v-864h-229z" />
    <glyph glyph-name="n" unicode="n" 
d="M111 0l0.000976562 1102h217v-111l89 73.5c15.333 12.333 40.166 25 74.499 38s72.5 19.5 114.5 19.5c60 0 107.167 -20.5 141.5 -61.5s51.5 -97.5 51.5 -169.5v-891h-230v854c0 53.333 -27.333 80 -82 80c-34 0 -83 -23.333 -147 -70v-864h-229z" />
    <glyph glyph-name="o" unicode="o" 
d="M98 389v324c0 273.333 118.833 409.833 356.5 409.5s356.5 -136.833 356.5 -409.5v-324c0 -273.333 -118.833 -410 -356.5 -410s-356.5 136.667 -356.5 410zM328 348c0 -120 42.333 -180 127 -180s127 60 127 180v406c0 120 -42.333 180 -127 180s-127 -60 -127 -180
v-406z" />
    <glyph glyph-name="p" unicode="p" 
d="M111 -348l-0.000976562 1450h217v-115h4c39.333 50.667 76.166 85.834 110.499 105.501s79.5 29.5 135.5 29.5c72.667 0 129.667 -26.5 171 -79.5s62 -128.833 62 -227.5v-528c0 -98 -20.833 -173.667 -62.5 -227s-98.5 -80 -170.5 -80
c-31.333 0 -61.166 5.33301 -89.499 16s-50.666 21.834 -66.999 33.501s-43.5 33.167 -81.5 64.5v-442h-229zM339.999 224.998c52 -38 95.667 -57 131 -57c74 0 111 59.333 111 178v410c0 118.667 -37 178 -111 178c-35.333 0 -79 -19 -131 -57v-652z" />
    <glyph glyph-name="q" unicode="q" 
d="M98 287v528.002c0 98 20.833 173.667 62.5 227s98.834 80 171.501 80c56 0 101 -9.83301 135 -29.5s71 -54.834 111 -105.501h4v115h217v-1450h-230v442c-38 -31.333 -65.167 -52.833 -81.5 -64.5s-38.5 -22.834 -66.5 -33.501s-57.667 -16 -89 -16
c-72.667 0 -129.834 26.667 -171.501 80s-62.5 129 -62.5 227zM328 346.002c0 -118.667 36.667 -178 110 -178c35.333 0 79 19 131 57v652c-52 38 -95.667 57 -131 57c-74 0 -110.667 -59.333 -110 -178v-410z" />
    <glyph glyph-name="r" unicode="r" horiz-adv-x="681" 
d="M111 0l-0.000976562 1102h219v-129h4c58.667 100 145.334 149.667 260.001 149h47v-239c-60 15.333 -109 22.666 -147 21.999c-42 0 -78.167 -13 -108.5 -39s-45.5 -62 -45.5 -108v-758h-229z" />
    <glyph glyph-name="s" unicode="s" horiz-adv-x="796" 
d="M55 287l201.003 55.002c18 -116 68.667 -174 152 -174c30 0 54.5 8.5 73.5 25.5s28.5 40.5 28.5 70.5c0 34 -14.667 67.833 -44 101.5s-65.166 65.167 -107.499 94.5s-84.666 60.333 -126.999 93s-78.166 72.5 -107.499 119.5s-44 98.5 -44 154.5
c0 86 29.333 156.667 88 212s131.667 83 219 83s160.666 -26.5 219.999 -79.5s98 -124.167 116 -213.5l-195 -32c-16.667 91.333 -60.334 137 -131.001 137c-30 0 -54.167 -7.5 -72.5 -22.5s-27.5 -36.833 -27.5 -65.5c0 -31.333 14.667 -62.333 44 -93
s65.166 -60.334 107.499 -89.001s84.666 -59.834 126.999 -93.501s78.166 -76 107.499 -127s44 -106.833 44 -167.5c0 -95.333 -29.333 -168.5 -88 -219.5s-136.334 -76.5 -233.001 -76.5c-197.333 0 -314.333 102.333 -351 307z" />
    <glyph glyph-name="t" unicode="t" horiz-adv-x="569" 
d="M20 913l0.000976562 189h127v297h230v-297h153v-189h-153v-634c0 -60 26 -90.333 78 -91h75v-196c-31.333 -8 -69.333 -12 -114 -12c-178.667 0 -268.334 82.333 -269.001 247v686h-127z" />
    <glyph glyph-name="u" unicode="u" 
d="M111 211v891h229v-854c0 -53.333 27.333 -80 82 -80c34 0 83 23.333 147 70v864h230v-1102h-217v111l-89.5 -74c-15.667 -12.667 -40.5 -25.334 -74.5 -38.001s-72.333 -19 -115 -19c-60 0 -107 20.333 -141 61s-51 97.334 -51 170.001z" />
    <glyph glyph-name="v" unicode="v" horiz-adv-x="796" 
d="M20 1102h234l141 -737h4l144 737h233l-266 -1102h-223z" />
    <glyph glyph-name="w" unicode="w" horiz-adv-x="1138" 
d="M12 1102h221l101 -688h4l145 686h170l123 -686h4l125 688h221l-254 -1102h-184l-125 696h-4l-149 -696h-185z" />
    <glyph glyph-name="x" unicode="x" horiz-adv-x="796" 
d="M25 0l245 584l-227 518h238l116 -307l123 307h238l-238 -514l250 -588h-238l-133 373h-4l-133 -373h-237z" />
    <glyph glyph-name="y" unicode="y" horiz-adv-x="796" 
d="M20 1102h234.002l147 -705h5l139 705h231l-289 -1184c-24.667 -98 -60.834 -166.5 -108.501 -205.5s-115.834 -58.5 -204.501 -58.5h-96v188h55c56 0 95.333 14.333 118 43s34 73.667 34 135c0 35.333 -8.33301 84 -25 146z" />
    <glyph glyph-name="z" unicode="z" horiz-adv-x="796" 
d="M61 0v188l420 725h-391v189h645v-189l-428 -725h428v-188h-674z" />
    <glyph glyph-name="braceleft" unicode="{" horiz-adv-x="569" 
d="M0 606v118.999c32.667 0 60 13.667 82 41s33 68.333 33 123v414c0 68 15.667 117.667 47 149s86.666 47 165.999 47h225v-98h-168c-49.333 0 -74 -34.333 -74 -103v-397c0 -74 -17.333 -130.333 -52 -169s-69 -60 -103 -64v-6c35.333 -5.33301 70 -27.166 104 -65.499
s51 -96.5 51 -174.5v-397c0 -68 24.667 -102.333 74 -103h168v-98h-225c-79.333 0 -134.666 15.667 -165.999 47s-47 81 -47 149v422c0 54.667 -11 95.667 -33 123s-49.333 41 -82 41z" />
    <glyph glyph-name="bar" unicode="|" horiz-adv-x="454" 
d="M127 -20v1519h201v-1519h-201z" />
    <glyph glyph-name="braceright" unicode="}" horiz-adv-x="569" 
d="M16 -78h168c49.333 0 74 34.333 74 103v397c0 74 17.333 130.333 52 169s69.334 60 104.001 64v7c-35.333 5.33301 -70.166 27 -104.499 65s-51.5 96 -51.5 174v397c0 68 -24.667 102.333 -74 103h-168v98h226c79.333 0 134.666 -15.667 165.999 -47s47 -81 47 -149v-422
c0 -54.667 10.833 -95.667 32.5 -123s48.834 -41 81.501 -41v-119c-32.667 0 -59.834 -13.667 -81.501 -41s-32.5 -68.333 -32.5 -123v-414c0 -68 -15.833 -117.667 -47.5 -149s-86.834 -47 -165.501 -47h-226v98z" />
    <glyph glyph-name="asciitilde" unicode="~" horiz-adv-x="1228" 
d="M125 526c31.333 35.333 54.8301 61.001 70.4971 77.001s42.667 33.833 81 53.5s78.5 29.5 120.5 29.5c53.333 0 129.333 -21.667 228 -65c6.66699 -2.66699 18.5 -7.83398 35.5 -15.501l37 -16.5c7.66699 -3.33301 18.667 -7.83301 33 -13.5s25.833 -9.5 34.5 -11.5
s19.5 -4 32.5 -6s25.167 -3 36.5 -3c26 0 50.833 7.5 74.5 22.5s42 29.667 55 44s29.833 35.833 50.5 64.5l90 -176c-8 -6.66699 -22.667 -20.667 -44 -42s-38.166 -36.666 -50.499 -45.999s-28.333 -20.833 -48 -34.5s-40.167 -23.334 -61.5 -29.001s-44.333 -8.5 -69 -8.5
c-57.333 0 -126.666 22.667 -207.999 68c-74 42 -152.667 63 -236 63c-69.333 0 -126.666 -43.667 -171.999 -131z" />
    <glyph glyph-name="uni00A0" unicode="&#xa0;" horiz-adv-x="454" 
 />
    <glyph glyph-name="exclamdown" unicode="&#xa1;" horiz-adv-x="569" 
d="M156 -377l45 1045h168l45 -1045h-258zM164 860v242h242v-242h-242z" />
    <glyph glyph-name="cent" unicode="&#xa2;" 
d="M78 410l-0.00195312 323c0 273.333 126.333 410 379 410c16.667 0 38.334 -1.33301 65.001 -4l72 262h151l-83 -307c104 -61.333 157 -177.666 159 -348.999h-213v29c0 52 -10 92.333 -30 121l-187 -690c16.667 -10.667 38.667 -16.334 66 -17.001
c96.667 0 145 60.333 145 181v69h229v-28c0 -273.333 -124.667 -410 -374 -410c-35.333 0 -64.666 2.66699 -87.999 8l-68 -246h-154l82 297c-100.667 63.333 -151 180.333 -151 351zM306.998 369c0 -6.66699 4 -28.668 12 -66.001h5l165 649
c-6.66699 1.33301 -17.334 2 -32.001 2c-45.333 0 -81.666 -14.667 -108.999 -44s-41 -74.666 -41 -135.999v-405z" />
    <glyph glyph-name="sterling" unicode="&#xa3;" 
d="M72 -20l-0.000976562 219.001c62.667 20.667 104.5 63.334 125.5 128.001s31.5 173.334 31.5 326.001h-157v172h129c-38 166.667 -57.333 278.667 -58 336c0 108 28 191.333 84 250s140.667 88 254 88c112 0 195 -33.833 249 -101.5s81 -171.834 81 -312.501h-209
c-4 88.667 -15.167 148.5 -33.5 179.5s-49.5 46.5 -93.5 46.5c-68 0 -102 -43.667 -102 -131c0 -35.333 3 -71.5 9 -108.5s14.5 -79.833 25.5 -128.5s19.167 -88 24.5 -118h203v-172h-184c-2.66699 -109.333 -8.16699 -193.333 -16.5 -252s-26.833 -113 -55.5 -163
c46.667 -32.667 94.334 -49.334 143.001 -50.001c69.333 0 104.333 73.333 105 220h204v-121c0 -96.667 -23.833 -172 -71.5 -226s-114.5 -81 -200.5 -81c-92.667 0 -180 32.667 -262 98c-86 -58.667 -161 -91.334 -225 -98.001z" />
    <glyph glyph-name="currency" unicode="&#xa4;" 
d="M16 408l96.999 93.999c-50.667 69.333 -76 148.333 -76 237s25.333 168 76 238l-97 94l103 109l96 -99c70.667 49.333 150.667 74 240 74c87.333 0 166.333 -24.667 237 -74l99 99l102 -109l-96 -94c50.667 -69.333 75.834 -148.5 75.501 -237.5
s-25.5 -168.167 -75.5 -237.5l96 -94l-102 -109l-99 98c-70.667 -49.333 -149.667 -73.666 -237 -72.999c-88.667 0 -168.667 24.333 -240 73l-96 -98zM224.999 739.499c0 -67 22.167 -123.667 66.5 -170s98.666 -69.5 162.999 -69.5s118.666 23.167 162.999 69.5
s66.5 103 66.5 170s-22.167 123.667 -66.5 170s-98.666 69.5 -162.999 69.5s-118.666 -23.167 -162.999 -69.5s-66.5 -103 -66.5 -170z" />
    <glyph glyph-name="yen" unicode="&#xa5;" 
d="M45 1479h205l207 -613h4l198 613h205l-186 -521h178v-172h-248l-55 -163h303v-172h-303v-451h-197v451h-303v172h303l-55 163h-248v172h178z" />
    <glyph glyph-name="brokenbar" unicode="&#xa6;" horiz-adv-x="454" 
d="M127 -20v626h201v-626h-201zM127 872v627h201v-627h-201z" />
    <glyph glyph-name="section" unicode="&#xa7;" horiz-adv-x="1024" 
d="M106 801c0 66.667 20.835 120.502 62.502 161.502s96.834 64.833 165.501 71.5c-68 52 -102.333 123.667 -103 215c0 75.333 25.333 135.833 76 181.5s123.667 68.5 219 68.5c60 0 116 -15.333 168 -46s95 -70 129 -118l-141 -102
c-2.66699 2.66699 -7.83398 8.5 -15.501 17.5s-13.167 15.167 -16.5 18.5l-17 17c-8 8 -14.5 13.833 -19.5 17.5l-18.5 13.5c-7.33301 5.33301 -14.5 9.33301 -21.5 12s-14.5 5 -22.5 7s-16.333 3 -25 3c-70.667 0 -106 -31.333 -106 -94c0 -31.333 17 -67.833 51 -109.5
s75.333 -83.334 124 -125.001l146.5 -130c49 -45 90.667 -94.833 125 -149.5s51.5 -107.334 51.5 -158.001c0 -68 -19.833 -124.833 -59.5 -170.5s-93.834 -69.167 -162.501 -70.5c68 -65.333 102.333 -139 103 -221c0 -80.667 -25.333 -146.667 -76 -198
s-115.667 -77 -195 -77c-69.333 0 -130 13.667 -182 41s-107.333 69 -166 125l150 117c44 -82 98 -123 162 -123c79.333 0 118.666 34 117.999 102c0 32.667 -17.333 71 -52 115s-76.667 88.833 -126 134.5l-147.5 140c-49 47.667 -91 99.5 -126 155.5
s-52.5 108.667 -52.5 158zM295.002 817.002c0 -32.667 47.499 -99.834 142.499 -201.501s160.833 -152.5 197.5 -152.5c26 0 48.167 8.83301 66.5 26.5s27.5 38.834 27.5 63.501c0 31.333 -46.667 97.5 -140 198.5s-161.333 151.5 -204 151.5
c-27.333 0 -49.166 -8.5 -65.499 -25.5s-24.5 -37.167 -24.5 -60.5z" />
    <glyph glyph-name="dieresis" unicode="&#xa8;" horiz-adv-x="454" 
d="M-45 1257v222h221v-222h-221zM279 1257v222h221v-222h-221z" />
    <glyph glyph-name="copyright" unicode="&#xa9;" horiz-adv-x="1638" 
d="M41 739c0 224 76.5 406.667 229.5 548s336 212 549 212s395.833 -70.667 548.5 -212s229 -324 229 -548s-76.333 -406.5 -229 -547.5s-335.5 -211.5 -548.5 -211.5s-396 70.5 -549 211.5s-229.5 323.5 -229.5 547.5zM242 739c0 -173.333 55.167 -316.666 165.5 -429.999
s247.5 -170 411.5 -170c162.667 0 299.667 56.667 411 170s167 256.666 167 429.999s-55.667 316.666 -167 429.999s-248.333 170 -411 170c-164 0 -301.167 -56.667 -411.5 -170s-165.5 -256.666 -165.5 -429.999zM414 743c0 132.667 38.8301 241.332 116.497 325.999
s182.167 127 313.5 127c95.333 0 176.833 -27.333 244.5 -82s108.834 -132.334 123.501 -233.001h-159c-9.33301 50.667 -33.166 89.167 -71.499 115.5s-84.166 39.5 -137.499 39.5c-75.333 0 -133.833 -26.167 -175.5 -78.5s-62.5 -122.166 -62.5 -209.499
c0 -83.333 22.5 -153.666 67.5 -210.999s103.167 -86 174.5 -86c57.333 0 104.333 14.333 141 43s58 68 64 118h166c-16.667 -100 -59.5 -178.5 -128.5 -235.5s-149.833 -85.5 -242.5 -85.5c-128.667 0 -233.167 42.833 -313.5 128.5s-120.5 193.5 -120.5 323.5z" />
    <glyph glyph-name="ordfeminine" unicode="&#xaa;" horiz-adv-x="544" 
d="M29 961c0 69.333 24.5 126.835 73.5 172.502s126.833 88.5 233.5 128.5v38c0 27.333 -5.5 46.833 -16.5 58.5s-28.833 17.5 -53.5 17.5c-49.333 0 -75.333 -28 -78 -84h-159c4 65.333 28.167 116.166 72.5 152.499s103.5 54.5 177.5 54.5c144.667 0 217 -60 217 -180
v-426c0 -8 3.33301 -31.333 10 -70h-144c0 5.33301 -1.33301 12.833 -4 22.5s-4 16.5 -4 20.5c-49.333 -36.667 -107.333 -55 -174 -55c-49.333 0 -86.833 13.667 -112.5 41s-38.5 63.666 -38.5 108.999zM188 987.002c0 -35.333 20 -53 60 -53c40.667 0 70 20.333 88 61v150
c-60 -30 -99.667 -56.333 -119 -79s-29 -49 -29 -79z" />
    <glyph glyph-name="guillemotleft" unicode="&#xab;" horiz-adv-x="1024" 
d="M129 553l236 313h202l-239 -315l233 -315h-196zM471 553l236 313h202l-239 -315l233 -315h-196z" />
    <glyph glyph-name="logicalnot" unicode="&#xac;" horiz-adv-x="1228" 
d="M96 631v200h1037v-628h-201v428h-836z" />
    <glyph glyph-name="uni00AD" unicode="&#xad;" horiz-adv-x="681" 
d="M90 457v188h502v-188h-502z" />
    <glyph glyph-name="registered" unicode="&#xae;" horiz-adv-x="1638" 
d="M41 739c0 224 76.5 406.667 229.5 548s336 212 549 212s395.833 -70.667 548.5 -212s229 -324 229 -548s-76.333 -406.5 -229 -547.5s-335.5 -211.5 -548.5 -211.5s-396 70.5 -549 211.5s-229.5 323.5 -229.5 547.5zM242 739c0 -173.333 55.167 -316.666 165.5 -429.999
s247.5 -170 411.5 -170c162.667 0 299.667 56.667 411 170s167 256.666 167 429.999s-55.667 316.666 -167 429.999s-248.333 170 -411 170c-164 0 -301.167 -56.667 -411.5 -170s-165.5 -256.666 -165.5 -429.999zM516 315l-0.000976562 850.002h322
c110.667 0 193.167 -19.333 247.5 -58s81.5 -103.334 81.5 -194.001c0 -72.667 -18.667 -127.334 -56 -164.001s-86.666 -57.667 -147.999 -63l204 -371h-186l-190 363h-107v-363h-168zM683.999 809.002h145.001c60 0 102.667 9.5 128 28.5s38 49.167 38 90.5
c0 39.333 -13.333 66.833 -40 82.5s-71.334 23.5 -134.001 23.5h-137v-225z" />
    <glyph glyph-name="macron" unicode="&#xaf;" horiz-adv-x="454" 
d="M-74 1305v131h602v-131h-602z" />
    <glyph glyph-name="degree" unicode="&#xb0;" horiz-adv-x="819" 
d="M115 1206c0 82 28.333 151.333 85 208s126.667 85 210 85s153.333 -28.333 210 -85s85 -126 85 -208s-28.333 -151.333 -85 -208s-126.667 -85 -210 -85s-153.333 28.333 -210 85s-85 126 -85 208zM242 1206c0 -50.667 15.667 -93 47 -127s71.5 -51 120.5 -51
s89.333 17 121 51s47.5 76.333 47.5 127s-15.833 93 -47.5 127s-72 51 -121 51s-89.167 -17 -120.5 -51s-47 -76.333 -47 -127z" />
    <glyph glyph-name="plusminus" unicode="&#xb1;" horiz-adv-x="1228" 
d="M96 0v201h1037v-201h-1037zM96 555v201h418v280h201v-280h418v-201h-418v-281h-201v281h-418z" />
    <glyph glyph-name="uni00B2" unicode="&#xb2;" horiz-adv-x="544" 
d="M29 598v166c104 118.667 179.833 218.334 227.5 299.001s71.5 152.334 71.5 215.001c0 38 -19.333 57 -58 57c-19.333 0 -35 -6.83301 -47 -20.5s-18 -29.834 -18 -48.501v-39h-176v41c0 65.333 24.833 120.166 74.5 164.499s112.834 66.5 189.501 66.5
c65.333 0 118.833 -19.167 160.5 -57.5s62.5 -84.5 62.5 -138.5c0 -83.333 -17.333 -164.333 -52 -243s-105.334 -178 -212.001 -298h258v-164h-481z" />
    <glyph glyph-name="uni00B3" unicode="&#xb3;" horiz-adv-x="544" 
d="M41 805v51.0029h176v-43c0 -42 18.5 -63 55.5 -63s55.5 26.333 55.5 79v52c0 45.333 -8.66699 75 -26 89s-47.666 21 -90.999 21v152c40.667 0 69.667 7.83301 87 23.5s26 47.5 26 95.5c0 54.667 -18 81.667 -54 81c-34 0 -51 -19 -51 -57v-35h-172v41
c0 61.333 20.833 111.166 62.5 149.499s98.167 57.5 169.5 57.5c75.333 0 133 -21.833 173 -65.5s60 -97.5 60 -161.5c0 -53.333 -6.83301 -95.333 -20.5 -126s-38.834 -56.334 -75.501 -77.001c44 -23.333 73 -50.333 87 -81s21 -77.334 21 -140.001
c0 -88.667 -20.5 -154.5 -61.5 -197.5s-105.833 -64.5 -194.5 -64.5c-151.333 0 -227 73 -227 219z" />
    <glyph glyph-name="acute" unicode="&#xb4;" horiz-adv-x="454" 
d="M82 1233l162 295h276l-268 -295h-170z" />
    <glyph glyph-name="uni00B5" unicode="&#xb5;" 
d="M111 -348v1450h229v-854c0 -53.333 27.333 -80 82 -80c34 0 83 23.333 147 70v864h230v-1102h-217v111c-39.333 -34 -66.333 -56.5 -81 -67.5s-36.667 -23.667 -66 -38s-61 -22.833 -95 -25.5v-328h-229z" />
    <glyph glyph-name="paragraph" unicode="&#xb6;" horiz-adv-x="1024" 
d="M12 1094c0 256.667 141.999 385 425.999 385h590v-131h-115v-1512h-168v1512h-178v-1512h-168v885c-117.333 0 -211.166 34.833 -281.499 104.5s-105.5 159.167 -105.5 268.5z" />
    <glyph glyph-name="periodcentered" unicode="&#xb7;" horiz-adv-x="454" 
d="M90 518c0 38 13.334 70.333 40.001 97s59.167 40 97.5 40s70.833 -13.333 97.5 -40s40 -59 40 -97s-13.333 -70.333 -40 -97s-59.334 -40 -98.001 -40c-39.333 0 -72 13 -98 39s-39 58.667 -39 98z" />
    <glyph glyph-name="cedilla" unicode="&#xb8;" horiz-adv-x="454" 
d="M-18 -436l34 102.001c46.667 -23.333 91.334 -35 134.001 -35c35.333 0 64.166 8.33301 86.499 25s33.5 36.334 33.5 59.001c0 38 -21.5 61.167 -64.5 69.5s-78.167 5.16602 -105.5 -9.50098l-45 37l140 188h98l-84 -123c19.333 2.66699 33.666 4 42.999 4
c50.667 -2.66699 94.334 -17.334 131.001 -44.001s55 -63.667 55 -111c0 -62.667 -24.833 -113.167 -74.5 -151.5s-109.5 -57.5 -179.5 -57.5c-68 0 -135.333 15.667 -202 47z" />
    <glyph glyph-name="uni00B9" unicode="&#xb9;" horiz-adv-x="544" 
d="M86 1284v98c75.333 28.667 143 67.667 203 117h100v-901h-196v686h-107z" />
    <glyph glyph-name="ordmasculine" unicode="&#xba;" horiz-adv-x="544" 
d="M41 1059v194c0 164 77.167 246 231.5 246s231.5 -82 231.5 -246v-194c0 -165.333 -77.167 -248 -231.5 -248s-231.5 82.667 -231.5 248zM209 1042c0 -66.667 21.167 -100 63.5 -100s63.5 33.333 63.5 100v226c0 66.667 -21.167 100 -63.5 100s-63.5 -33.333 -63.5 -100
v-226z" />
    <glyph glyph-name="guillemotright" unicode="&#xbb;" horiz-adv-x="1024" 
d="M115 866h202l236 -313l-236 -317h-196l233 315zM457 866h202l236 -313l-236 -317h-196l233 315z" />
    <glyph glyph-name="onequarter" unicode="&#xbc;" horiz-adv-x="1363" 
d="M102 1284l-0.000976562 98c72.667 28.667 140.334 67 203.001 115h101v-899h-197v686h-107zM151.999 -20l839 1519h187l-840 -1519h-186zM757.999 205v164l264 518h195v-527h77v-155h-77v-205h-168v205h-291zM917.999 360h131v273h-5z" />
    <glyph glyph-name="onehalf" unicode="&#xbd;" horiz-adv-x="1363" 
d="M98 1284v98c75.333 28.667 143 67.667 203 117h100v-901h-196v686h-107zM135 -20l840 1519h186l-839 -1519h-187zM815 0l-0.000976562 166c104 118.667 179.833 218.334 227.5 299.001s71.5 152.334 71.5 215.001c0 38 -19 57 -57 57
c-19.333 0 -35.166 -6.83301 -47.499 -20.5s-18.5 -29.834 -18.5 -48.501v-39h-176v41c0 65.333 25 120.166 75 164.499s113 66.5 189 66.5c65.333 0 119 -19.167 161 -57.5s63 -84.5 63 -138.5c0 -83.333 -17.5 -164.333 -52.5 -243s-105.833 -178 -212.5 -298h258v-164
h-481z" />
    <glyph glyph-name="threequarters" unicode="&#xbe;" horiz-adv-x="1363" 
d="M61 805l-0.00195312 51.0029h177v-43c0 -42 18.333 -63 55 -63s55 26.333 55 79v52c0 45.333 -8.5 75 -25.5 89s-47.5 21 -91.5 21v152c40.667 0 69.667 7.83301 87 23.5s26 47.5 26 95.5c0 54.667 -17.667 81.667 -53 81c-34 0 -51 -19 -51 -57v-35h-172v41
c0 61.333 20.833 111.166 62.5 149.499s97.834 57.5 168.501 57.5c75.333 0 133 -21.833 173 -65.5s60 -97.5 60 -161.5c0 -53.333 -6.66699 -95.333 -20 -126s-38.666 -56.334 -75.999 -77.001c44 -23.333 73.167 -50.333 87.5 -81s21.5 -77.334 21.5 -140.001
c0 -88.667 -20.5 -154.5 -61.5 -197.5s-105.833 -64.5 -194.5 -64.5c-152 0 -228 73 -228 219zM189.998 -19.9971l840 1519h187l-840 -1519h-187zM757.998 205.003v164l264 518h195v-527h77v-155h-77v-205h-168v205h-291zM917.998 360.003h131v273h-5z" />
    <glyph glyph-name="questiondown" unicode="&#xbf;" horiz-adv-x="796" 
d="M66 -123c0 46.667 7.5 91.5 22.5 134.5s28.167 73.333 39.5 91s33 48.5 65 92.5c27.333 36.667 48.5 68 63.5 94s29.167 62.833 42.5 110.5s20 100.167 20 157.5v111h197v-172c0 -105.333 -35.333 -223.666 -106 -354.999c-4 -8 -12.5 -23.667 -25.5 -47l-27 -48
c-5 -8.66699 -11.833 -22.334 -20.5 -41.001s-14.834 -33.334 -18.501 -44.001s-7.16699 -23.167 -10.5 -37.5s-5 -27.833 -5 -40.5c0 -24.667 8.16699 -46.167 24.5 -64.5s36.833 -27.5 61.5 -27.5c69.333 0 118 52 146 156l196 -74
c-32.667 -91.333 -78.667 -159.166 -138 -203.499s-137 -66.5 -233 -66.5c-79.333 0 -148.166 26.167 -206.499 78.5s-87.5 117.5 -87.5 195.5zM301 860v242h242v-242h-242z" />
    <glyph glyph-name="Agrave" unicode="&#xc0;" 
d="M25 0l272 1479h315l273 -1479h-246l-45 328h-279l-45 -328h-245zM162 1851h276l162 -295h-170zM352 549h205l-100 635h-4z" />
    <glyph glyph-name="Aacute" unicode="&#xc1;" 
d="M25 0l272 1479h315l273 -1479h-246l-45 328h-279l-45 -328h-245zM309 1556l162 295h277l-269 -295h-170zM352 549h205l-100 635h-4z" />
    <glyph glyph-name="Acircumflex" unicode="&#xc2;" 
d="M25 0l272 1479h315l273 -1479h-246l-45 328h-279l-45 -328h-245zM145 1556l197 295h225l197 -295h-189l-120 183l-121 -183h-189zM352 549h205l-100 635h-4z" />
    <glyph glyph-name="Atilde" unicode="&#xc3;" 
d="M25 0l272 1479h315l273 -1479h-246l-45 328h-279l-45 -328h-245zM121 1573c31.333 161.333 101.668 242 211.001 242c31.333 0 75.666 -13 132.999 -39c60 -27.333 101 -41 123 -41c30 0 51.5 7.16699 64.5 21.5s20.167 37.166 21.5 68.499h114
c-31.333 -161.333 -101.333 -242 -210 -242c-34 0 -78.667 13.667 -134 41c-52 26 -93 39 -123 39s-51.333 -7.16699 -64 -21.5s-19.667 -37.166 -21 -68.499h-115zM352.002 549h205l-100 635h-4z" />
    <glyph glyph-name="Adieresis" unicode="&#xc4;" 
d="M25 0l272 1479h315l273 -1479h-246l-45 328h-279l-45 -328h-245zM182 1581v221h221v-221h-221zM352 549h205l-100 635h-4zM506 1581v221h221v-221h-221z" />
    <glyph glyph-name="Aring" unicode="&#xc5;" 
d="M25 0l272 1479h315l273 -1479h-246l-45 328h-279l-45 -328h-245zM246 1765c0 57.333 20.5 106.5 61.5 147.5s90.167 61.5 147.5 61.5s106.5 -20.5 147.5 -61.5s61.5 -90.167 61.5 -147.5s-20.5 -106.5 -61.5 -147.5s-90.167 -61.5 -147.5 -61.5s-106.5 20.5 -147.5 61.5
s-61.5 90.167 -61.5 147.5zM348 1765c0 -30 10.333 -55.167 31 -75.5s46 -30.5 76 -30.5s55.167 10.167 75.5 30.5s30.5 45.5 30.5 75.5s-10.167 55.333 -30.5 76s-45.5 31 -75.5 31s-55.333 -10.333 -76 -31s-31 -46 -31 -76zM352 549h205l-100 635h-4z" />
    <glyph glyph-name="AE" unicode="&#xc6;" horiz-adv-x="1478" 
d="M25 0l477 1479h870v-222h-434v-380h336v-222h-336v-434h463v-221h-717v348h-295l-106 -348h-258zM459 569h225v725h-4z" />
    <glyph glyph-name="Ccedilla" unicode="&#xc7;" horiz-adv-x="1024" 
d="M123 358v761.999c0 110.667 33.167 201.5 99.5 272.5s162.833 106.5 289.5 106.5c121.333 0 214.5 -38.167 279.5 -114.5s97.5 -173.166 97.5 -290.499v-109h-254v115c0 58.667 -11.667 103 -35 133s-52.666 45 -87.999 45c-49.333 0 -84.166 -13 -104.499 -39
s-30.5 -67.667 -30.5 -125v-749c0 -57.333 10.167 -99 30.5 -125s55.166 -39 104.499 -39c45.333 0 77.166 12.167 95.499 36.5s27.5 61.833 27.5 112.5v178h254v-170c0 -110.667 -32.5 -201.334 -97.5 -272.001s-158.167 -106 -279.5 -106
c-126.667 0 -223.167 35.333 -289.5 106s-99.5 161.334 -99.5 272.001zM266 -436.001l35.001 102.001c46.667 -23.333 91 -35 133 -35c35.333 0 64.333 8.33301 87 25s34 36.334 34 59.001c0 38 -21.5 61.167 -64.5 69.5s-78.167 5.16602 -105.5 -9.50098l-45 37l139 188h99
l-84 -123c19.333 2.66699 33.666 4 42.999 4c50.667 -2.66699 94.334 -17.334 131.001 -44.001s55 -63.667 55 -111c0 -62.667 -25 -113.167 -75 -151.5s-109.667 -57.5 -179 -57.5c-68.667 0 -136.334 15.667 -203.001 47z" />
    <glyph glyph-name="Egrave" unicode="&#xc8;" 
d="M123 0v1479h680v-222h-426v-380h328v-222h-328v-434h454v-221h-708zM186 1851h277l162 -295h-170z" />
    <glyph glyph-name="Eacute" unicode="&#xc9;" 
d="M123 0v1479h680v-222h-426v-380h328v-222h-328v-434h454v-221h-708zM334 1556l162 295h276l-268 -295h-170z" />
    <glyph glyph-name="Ecircumflex" unicode="&#xca;" 
d="M123 0v1479h680v-222h-426v-380h328v-222h-328v-434h454v-221h-708zM170 1556l197 295h225l196 -295h-188l-121 183l-121 -183h-188z" />
    <glyph glyph-name="Edieresis" unicode="&#xcb;" 
d="M123 0v1479h680v-222h-426v-380h328v-222h-328v-434h454v-221h-708zM207 1581v221h221v-221h-221zM530 1581v221h222v-221h-222z" />
    <glyph glyph-name="Igrave" unicode="&#xcc;" horiz-adv-x="569" 
d="M-8 1851h276l162 -295h-170zM158 0v1479h254v-1479h-254z" />
    <glyph glyph-name="Iacute" unicode="&#xcd;" horiz-adv-x="569" 
d="M139 1556l162 295h277l-269 -295h-170zM158 0v1479h254v-1479h-254z" />
    <glyph glyph-name="Icircumflex" unicode="&#xce;" horiz-adv-x="569" 
d="M-25 1556l197 295h225l197 -295h-188l-121 183l-121 -183h-189zM158 0v1479h254v-1479h-254z" />
    <glyph glyph-name="Idieresis" unicode="&#xcf;" horiz-adv-x="569" 
d="M12 1581v221h221v-221h-221zM158 0v1479h254v-1479h-254zM336 1581v221h221v-221h-221z" />
    <glyph glyph-name="Eth" unicode="&#xd0;" horiz-adv-x="1024" 
d="M41 655v222h82v602h377c267.333 0 401 -149 401 -447v-586c0 -297.333 -133.667 -446 -401 -446h-377v655h-82zM377 209h88c68 0 115.333 15 142 45s40 84 40 162v647c0 78 -13.333 132 -40 162s-74 45 -142 45h-88v-393h151v-222h-151v-446z" />
    <glyph glyph-name="Ntilde" unicode="&#xd1;" horiz-adv-x="1024" 
d="M123 0v1479h235l310 -846h4v846h229v-1479h-221l-324 924h-4v-924h-229zM178 1573c31.333 161.333 101.667 242 211 242c31.333 0 75.666 -13 132.999 -39c60 -27.333 101 -41 123 -41c30 0 51.5 7.16699 64.5 21.5s20.167 37.166 21.5 68.499h115
c-31.333 -161.333 -101.666 -242 -210.999 -242c-34 0 -78.333 13.667 -133 41c-52 26 -93 39 -123 39s-51.5 -7.16699 -64.5 -21.5s-20.167 -37.166 -21.5 -68.499h-115z" />
    <glyph glyph-name="Ograve" unicode="&#xd2;" horiz-adv-x="1024" 
d="M123 358v762c0 110.667 33.167 201.5 99.5 272.5s162.833 106.5 289.5 106.5s223.167 -35.5 289.5 -106.5s99.5 -161.833 99.5 -272.5v-762c0 -110.667 -33.167 -201.334 -99.5 -272.001s-162.833 -106 -289.5 -106s-223.167 35.333 -289.5 106
s-99.5 161.334 -99.5 272.001zM219 1851h277l161 -295h-170zM377 365c0 -57.333 10.167 -99 30.5 -125s55.166 -39 104.499 -39s84.166 13 104.499 39s30.5 67.667 30.5 125v749c0 57.333 -10.167 99 -30.5 125s-55.166 39 -104.499 39s-84.166 -13 -104.499 -39
s-30.5 -67.667 -30.5 -125v-749z" />
    <glyph glyph-name="Oacute" unicode="&#xd3;" horiz-adv-x="1024" 
d="M123 358v762c0 110.667 33.167 201.5 99.5 272.5s162.833 106.5 289.5 106.5s223.167 -35.5 289.5 -106.5s99.5 -161.833 99.5 -272.5v-762c0 -110.667 -33.167 -201.334 -99.5 -272.001s-162.833 -106 -289.5 -106s-223.167 35.333 -289.5 106
s-99.5 161.334 -99.5 272.001zM367 1556l161 295h277l-268 -295h-170zM377 365c0 -57.333 10.167 -99 30.5 -125s55.166 -39 104.499 -39s84.166 13 104.499 39s30.5 67.667 30.5 125v749c0 57.333 -10.167 99 -30.5 125s-55.166 39 -104.499 39s-84.166 -13 -104.499 -39
s-30.5 -67.667 -30.5 -125v-749z" />
    <glyph glyph-name="Ocircumflex" unicode="&#xd4;" horiz-adv-x="1024" 
d="M123 358v762c0 110.667 33.167 201.5 99.5 272.5s162.833 106.5 289.5 106.5s223.167 -35.5 289.5 -106.5s99.5 -161.833 99.5 -272.5v-762c0 -110.667 -33.167 -201.334 -99.5 -272.001s-162.833 -106 -289.5 -106s-223.167 35.333 -289.5 106
s-99.5 161.334 -99.5 272.001zM203 1556l196 295h226l196 -295h-188l-121 183l-121 -183h-188zM377 365c0 -57.333 10.167 -99 30.5 -125s55.166 -39 104.499 -39s84.166 13 104.499 39s30.5 67.667 30.5 125v749c0 57.333 -10.167 99 -30.5 125s-55.166 39 -104.499 39
s-84.166 -13 -104.499 -39s-30.5 -67.667 -30.5 -125v-749z" />
    <glyph glyph-name="Otilde" unicode="&#xd5;" horiz-adv-x="1024" 
d="M123 358v762c0 110.667 33.167 201.5 99.5 272.5s162.833 106.5 289.5 106.5s223.167 -35.5 289.5 -106.5s99.5 -161.833 99.5 -272.5v-762c0 -110.667 -33.167 -201.334 -99.5 -272.001s-162.833 -106 -289.5 -106s-223.167 35.333 -289.5 106
s-99.5 161.334 -99.5 272.001zM178 1573c31.333 161.333 101.667 242 211 242c31.333 0 75.666 -13 132.999 -39c60 -27.333 101 -41 123 -41c30 0 51.5 7.16699 64.5 21.5s20.167 37.166 21.5 68.499h115c-31.333 -161.333 -101.666 -242 -210.999 -242
c-34 0 -78.333 13.667 -133 41c-52 26 -93 39 -123 39s-51.5 -7.16699 -64.5 -21.5s-20.167 -37.166 -21.5 -68.499h-115zM377.001 365c0 -57.333 10.167 -99 30.5 -125s55.166 -39 104.499 -39s84.166 13 104.499 39s30.5 67.667 30.5 125v749
c0 57.333 -10.167 99 -30.5 125s-55.166 39 -104.499 39s-84.166 -13 -104.499 -39s-30.5 -67.667 -30.5 -125v-749z" />
    <glyph glyph-name="Odieresis" unicode="&#xd6;" horiz-adv-x="1024" 
d="M123 358v762c0 110.667 33.167 201.5 99.5 272.5s162.833 106.5 289.5 106.5s223.167 -35.5 289.5 -106.5s99.5 -161.833 99.5 -272.5v-762c0 -110.667 -33.167 -201.334 -99.5 -272.001s-162.833 -106 -289.5 -106s-223.167 35.333 -289.5 106
s-99.5 161.334 -99.5 272.001zM240 1581v221h221v-221h-221zM377 365c0 -57.333 10.167 -99 30.5 -125s55.166 -39 104.499 -39s84.166 13 104.499 39s30.5 67.667 30.5 125v749c0 57.333 -10.167 99 -30.5 125s-55.166 39 -104.499 39s-84.166 -13 -104.499 -39
s-30.5 -67.667 -30.5 -125v-749zM563 1581v221h221v-221h-221z" />
    <glyph glyph-name="multiply" unicode="&#xd7;" horiz-adv-x="1228" 
d="M96 143l377 375l-377 377l142 141l376 -377l377 377l142 -141l-375 -377l375 -375l-142 -143l-377 377l-376 -377z" />
    <glyph glyph-name="Oslash" unicode="&#xd8;" horiz-adv-x="1024" 
d="M57 -246l142 361.001c-50.667 64 -76 145 -76 243v762c0 110.667 33.167 201.5 99.5 272.5s162.833 106.5 289.5 106.5c83.333 0 153.666 -16.333 210.999 -49l78 197h166l-121 -312c36.667 -60 55 -131.667 55 -215v-762c0 -110.667 -33.167 -201.334 -99.5 -272.001
s-162.833 -106 -289.5 -106c-69.333 0 -130.666 11.333 -183.999 34l-103 -260h-168zM377 526.001h3.99805l258 666c-13.333 57.333 -55.666 86 -126.999 86c-49.333 0 -84.166 -13 -104.499 -39s-30.5 -67.667 -30.5 -125v-588zM402.998 248.001
c16.667 -31.333 53.001 -47 109.001 -47c49.333 0 84.166 13 104.499 39s30.5 67.667 30.5 125v503h-4z" />
    <glyph glyph-name="Ugrave" unicode="&#xd9;" horiz-adv-x="1024" 
d="M123 373v1106h254v-1117c0 -108 45 -161.833 135 -161.5s135 54.166 135 161.499v1117h254v-1106c0 -125.333 -34.5 -222.166 -103.5 -290.499s-164.167 -102.5 -285.5 -102.5s-216.5 34.167 -285.5 102.5s-103.5 165.166 -103.5 290.499zM219 1851h277l161 -295h-170z
" />
    <glyph glyph-name="Uacute" unicode="&#xda;" horiz-adv-x="1024" 
d="M123 373v1106h254v-1117c0 -108 45 -161.833 135 -161.5s135 54.166 135 161.499v1117h254v-1106c0 -125.333 -34.5 -222.166 -103.5 -290.499s-164.167 -102.5 -285.5 -102.5s-216.5 34.167 -285.5 102.5s-103.5 165.166 -103.5 290.499zM367 1556l161 295h277
l-268 -295h-170z" />
    <glyph glyph-name="Ucircumflex" unicode="&#xdb;" horiz-adv-x="1024" 
d="M123 373v1106h254v-1117c0 -108 45 -161.833 135 -161.5s135 54.166 135 161.499v1117h254v-1106c0 -125.333 -34.5 -222.166 -103.5 -290.499s-164.167 -102.5 -285.5 -102.5s-216.5 34.167 -285.5 102.5s-103.5 165.166 -103.5 290.499zM203 1556l196 295h226l196 -295
h-188l-121 183l-121 -183h-188z" />
    <glyph glyph-name="Udieresis" unicode="&#xdc;" horiz-adv-x="1024" 
d="M123 373v1106h254v-1117c0 -108 45 -161.833 135 -161.5s135 54.166 135 161.499v1117h254v-1106c0 -125.333 -34.5 -222.166 -103.5 -290.499s-164.167 -102.5 -285.5 -102.5s-216.5 34.167 -285.5 102.5s-103.5 165.166 -103.5 290.499zM240 1581v221h221v-221h-221z
M563 1581v221h221v-221h-221z" />
    <glyph glyph-name="Yacute" unicode="&#xdd;" 
d="M20 1479h259l178 -564h4l170 564h258l-307 -865v-614h-254v614zM309 1556l162 295h277l-269 -295h-170z" />
    <glyph glyph-name="Thorn" unicode="&#xde;" horiz-adv-x="1024" 
d="M123 0v1479h254v-287h110c160 0 276.5 -33.833 349.5 -101.5s109.5 -179.334 109.5 -335.001s-36.5 -267.334 -109.5 -335.001s-189.5 -101.5 -349.5 -101.5h-110v-319h-254zM377 528.002l98 0.000976562c83.333 0 140.333 16.167 171 48.5s46 92.166 46 179.499
s-15.333 147 -46 179s-87.667 48 -171 48h-98v-455z" />
    <glyph glyph-name="germandbls" unicode="&#xdf;" 
d="M111 0l0.000976562 1106c0 126.667 28 222.5 84 287.5s136.333 97.5 241 97.5c128.667 0 218.834 -35.833 270.501 -107.5s77.5 -170.5 77.5 -296.5c0 -169.333 -49.667 -260.666 -149 -273.999v-4c65.333 -20.667 113 -62 143 -124s45 -151 45 -267
c0 -154 -19.333 -262.167 -58 -324.5s-98.334 -93.5 -179.001 -93.5h-135v195c16.667 -4 35 -6.33301 55 -7c30 0 50.833 11 62.5 33s17.5 57 17.5 105v206c0 106.667 -42.333 160 -127 160v189c39.333 6.66699 65.166 19.167 77.499 37.5s18.5 54.833 18.5 109.5v143
c0 87.333 -35.333 131.333 -106 132c-38 0 -65.667 -12 -83 -36s-26 -62.667 -26 -116v-1151h-229z" />
    <glyph glyph-name="agrave" unicode="&#xe0;" 
d="M70 227c0 117.333 38.832 213.668 116.499 289.001s201.834 145.666 372.501 210.999v66c0 94 -37.667 141 -113 141c-49.333 0 -82.833 -13 -100.5 -39s-27.834 -65 -30.501 -117h-229c5.33301 110.667 40.833 195.667 106.5 255s153.167 89 262.5 89
c108 0 190.5 -24.833 247.5 -74.5s85.5 -124.5 85.5 -224.5v-706c0 -20.667 5 -59.667 15 -117h-219c-1.33301 10.667 -3.83301 25.667 -7.5 45s-5.5 33 -5.5 41c-87.333 -70.667 -176.666 -106 -267.999 -106c-75.333 0 -133 22.667 -173 68s-60 105 -60 179zM161.999 1528
h276l162 -295h-170zM298.999 268.002c0 -66.667 35.667 -100 107 -100c54.667 0 105.667 34 153 102v289c-100 -57.333 -168.333 -107.5 -205 -150.5s-55 -89.833 -55 -140.5z" />
    <glyph glyph-name="aacute" unicode="&#xe1;" 
d="M70 227c0 117.333 38.832 213.668 116.499 289.001s201.834 145.666 372.501 210.999v66c0 94 -37.667 141 -113 141c-49.333 0 -82.833 -13 -100.5 -39s-27.834 -65 -30.501 -117h-229c5.33301 110.667 40.833 195.667 106.5 255s153.167 89 262.5 89
c108 0 190.5 -24.833 247.5 -74.5s85.5 -124.5 85.5 -224.5v-706c0 -20.667 5 -59.667 15 -117h-219c-1.33301 10.667 -3.83301 25.667 -7.5 45s-5.5 33 -5.5 41c-87.333 -70.667 -176.666 -106 -267.999 -106c-75.333 0 -133 22.667 -173 68s-60 105 -60 179z
M298.999 268.002c0 -66.667 35.667 -100 107 -100c54.667 0 105.667 34 153 102v289c-100 -57.333 -168.333 -107.5 -205 -150.5s-55 -89.833 -55 -140.5zM308.999 1233l162 295h277l-269 -295h-170z" />
    <glyph glyph-name="acircumflex" unicode="&#xe2;" 
d="M70 227c0 117.333 38.832 213.668 116.499 289.001s201.834 145.666 372.501 210.999v66c0 94 -37.667 141 -113 141c-49.333 0 -82.833 -13 -100.5 -39s-27.834 -65 -30.501 -117h-229c5.33301 110.667 40.833 195.667 106.5 255s153.167 89 262.5 89
c108 0 190.5 -24.833 247.5 -74.5s85.5 -124.5 85.5 -224.5v-706c0 -20.667 5 -59.667 15 -117h-219c-1.33301 10.667 -3.83301 25.667 -7.5 45s-5.5 33 -5.5 41c-87.333 -70.667 -176.666 -106 -267.999 -106c-75.333 0 -133 22.667 -173 68s-60 105 -60 179zM144.999 1233
l197 295h225l197 -295h-189l-120 182l-121 -182h-189zM298.999 268.002c0 -66.667 35.667 -100 107 -100c54.667 0 105.667 34 153 102v289c-100 -57.333 -168.333 -107.5 -205 -150.5s-55 -89.833 -55 -140.5z" />
    <glyph glyph-name="atilde" unicode="&#xe3;" 
d="M70 227c0 117.333 38.832 213.668 116.499 289.001s201.834 145.666 372.501 210.999v66c0 94 -37.667 141 -113 141c-49.333 0 -82.833 -13 -100.5 -39s-27.834 -65 -30.501 -117h-229c5.33301 110.667 40.833 195.667 106.5 255s153.167 89 262.5 89
c108 0 190.5 -24.833 247.5 -74.5s85.5 -124.5 85.5 -224.5v-706c0 -20.667 5 -59.667 15 -117h-219c-1.33301 10.667 -3.83301 25.667 -7.5 45s-5.5 33 -5.5 41c-87.333 -70.667 -176.666 -106 -267.999 -106c-75.333 0 -133 22.667 -173 68s-60 105 -60 179zM120.999 1249
c31.333 161.333 101.668 241.999 211.001 241.999c31.333 0 75.666 -13 132.999 -39c60 -27.333 101 -41 123 -41c30 0 51.5 7.16699 64.5 21.5s20.167 37.166 21.5 68.499h114c-31.333 -161.333 -101.333 -241.666 -210 -240.999c-34 0 -78.667 13.333 -134 40
c-52 26 -93 39 -123 39s-51.333 -7.16699 -64 -21.5s-19.667 -37.166 -21 -68.499h-115zM299.001 268.001c0 -66.667 35.667 -100 107 -100c54.667 0 105.667 34 153 102v289c-100 -57.333 -168.333 -107.5 -205 -150.5s-55 -89.833 -55 -140.5z" />
    <glyph glyph-name="adieresis" unicode="&#xe4;" 
d="M70 227c0 117.333 38.832 213.668 116.499 289.001s201.834 145.666 372.501 210.999v66c0 94 -37.667 141 -113 141c-49.333 0 -82.833 -13 -100.5 -39s-27.834 -65 -30.501 -117h-229c5.33301 110.667 40.833 195.667 106.5 255s153.167 89 262.5 89
c108 0 190.5 -24.833 247.5 -74.5s85.5 -124.5 85.5 -224.5v-706c0 -20.667 5 -59.667 15 -117h-219c-1.33301 10.667 -3.83301 25.667 -7.5 45s-5.5 33 -5.5 41c-87.333 -70.667 -176.666 -106 -267.999 -106c-75.333 0 -133 22.667 -173 68s-60 105 -60 179zM181.999 1257
v222h221v-222h-221zM298.999 268.002c0 -66.667 35.667 -100 107 -100c54.667 0 105.667 34 153 102v289c-100 -57.333 -168.333 -107.5 -205 -150.5s-55 -89.833 -55 -140.5zM505.999 1257v222h221v-222h-221z" />
    <glyph glyph-name="aring" unicode="&#xe5;" 
d="M70 227c0 117.333 38.832 213.668 116.499 289.001s201.834 145.666 372.501 210.999v66c0 94 -37.667 141 -113 141c-49.333 0 -82.833 -13 -100.5 -39s-27.834 -65 -30.501 -117h-229c5.33301 110.667 40.833 195.667 106.5 255s153.167 89 262.5 89
c108 0 190.5 -24.833 247.5 -74.5s85.5 -124.5 85.5 -224.5v-706c0 -20.667 5 -59.667 15 -117h-219c-1.33301 10.667 -3.83301 25.667 -7.5 45s-5.5 33 -5.5 41c-87.333 -70.667 -176.666 -106 -267.999 -106c-75.333 0 -133 22.667 -173 68s-60 105 -60 179zM245.999 1442
c0 57.333 20.5 106.5 61.5 147.5s90.167 61.5 147.5 61.5s106.5 -20.5 147.5 -61.5s61.5 -90.167 61.5 -147.5s-20.5 -106.5 -61.5 -147.5s-90.167 -61.5 -147.5 -61.5s-106.5 20.5 -147.5 61.5s-61.5 90.167 -61.5 147.5zM298.999 268.002c0 -66.667 35.667 -100 107 -100
c54.667 0 105.667 34 153 102v289c-100 -57.333 -168.333 -107.5 -205 -150.5s-55 -89.833 -55 -140.5zM347.999 1442c0 -30 10.333 -55.333 31 -76s46 -31 76 -31s55.167 10.333 75.5 31s30.5 46 30.5 76s-10.167 55.167 -30.5 75.5s-45.5 30.5 -75.5 30.5
s-55.333 -10.167 -76 -30.5s-31 -45.5 -31 -75.5z" />
    <glyph glyph-name="ae" unicode="&#xe6;" horiz-adv-x="1366" 
d="M70 227c0 117.333 38.5039 213.668 115.504 289.001s200.833 145.666 371.5 210.999v66c0 94 -37 141 -111 141c-49.333 0 -82.833 -13 -100.5 -39s-27.834 -65 -30.501 -117h-229c5.33301 109.333 39.166 194 101.499 254s140.5 90 234.5 90
c118.667 0 206.667 -34 264 -102c53.333 68 134.666 102 243.999 102c225.333 0 338 -136.333 338 -409v-205h-482v-160c0 -120 41.667 -180 125 -180c84.667 0 127 60 127 180v25h230c-4 -262 -123 -393 -357 -393c-128.667 0 -221.334 47.667 -278.001 143
c-108 -95.333 -209.667 -143 -305 -143c-86 0 -150.5 22.333 -193.5 67s-64.5 104.667 -64.5 180zM299.004 268.002c0 -66.667 35.667 -100 107 -100c56 0 106.333 34 151 102v289c-100 -57.333 -168 -107.5 -204 -150.5s-54 -89.833 -54 -140.5zM786.004 696.002h252v58
c0 120 -42.333 180 -127 180c-83.333 0 -125 -60 -125 -180v-58z" />
    <glyph glyph-name="ccedilla" unicode="&#xe7;" 
d="M98 389v324.001c0 273.333 119 409.666 357 408.999c233.333 0 352 -132.333 356 -397h-229v29c0 120 -42.333 180 -127 180s-127 -60 -127 -180v-406c0 -120 42.333 -180 127 -180s127 60 127 180v70h229v-29c0 -273.333 -118.833 -410 -356.5 -410
s-356.5 136.667 -356.5 410zM209 -435.999l35.002 102.001c46.667 -23.333 91 -35 133 -35c35.333 0 64.333 8.33301 87 25s34 36.334 34 59.001c0 38 -21.5 61.167 -64.5 69.5s-78.167 5.16602 -105.5 -9.50098l-45 37l139 188h98l-84 -123
c19.333 2.66699 33.666 4 42.999 4c50.667 -2.66699 94.5 -17.334 131.5 -44.001s55.5 -63.667 55.5 -111c0 -62.667 -25 -113.167 -75 -151.5s-109.667 -57.5 -179 -57.5c-68.667 0 -136.334 15.667 -203.001 47z" />
    <glyph glyph-name="egrave" unicode="&#xe8;" 
d="M98 389v324.001c0 273.333 118.833 409.833 356.5 409.5s356.5 -136.833 356.5 -409.5v-205h-483v-160c0 -120 42.333 -180 127 -180s127 60 127 180v25h229c-4 -262 -122.667 -393 -356 -393c-238 -0.666992 -357 135.666 -357 408.999zM162 1528h276l162 -295h-170z
M328 696.001h254v58c0 120 -42.333 180 -127 180s-127 -60 -127 -180v-58z" />
    <glyph glyph-name="eacute" unicode="&#xe9;" 
d="M98 389v324.001c0 273.333 118.833 409.833 356.5 409.5s356.5 -136.833 356.5 -409.5v-205h-483v-160c0 -120 42.333 -180 127 -180s127 60 127 180v25h229c-4 -262 -122.667 -393 -356 -393c-238 -0.666992 -357 135.666 -357 408.999zM309 1233l162 295h277l-269 -295
h-170zM328 696.001h254v58c0 120 -42.333 180 -127 180s-127 -60 -127 -180v-58z" />
    <glyph glyph-name="ecircumflex" unicode="&#xea;" 
d="M98 389v324.001c0 273.333 118.833 409.833 356.5 409.5s356.5 -136.833 356.5 -409.5v-205h-483v-160c0 -120 42.333 -180 127 -180s127 60 127 180v25h229c-4 -262 -122.667 -393 -356 -393c-238 -0.666992 -357 135.666 -357 408.999zM145 1233l197 295h225l197 -295
h-189l-120 182l-121 -182h-189zM328 696.001h254v58c0 120 -42.333 180 -127 180s-127 -60 -127 -180v-58z" />
    <glyph glyph-name="edieresis" unicode="&#xeb;" 
d="M98 389v324.001c0 273.333 118.833 409.833 356.5 409.5s356.5 -136.833 356.5 -409.5v-205h-483v-160c0 -120 42.333 -180 127 -180s127 60 127 180v25h229c-4 -262 -122.667 -393 -356 -393c-238 -0.666992 -357 135.666 -357 408.999zM182 1257v222h221v-222h-221z
M328 696.001h254v58c0 120 -42.333 180 -127 180s-127 -60 -127 -180v-58zM506 1257v222h221v-222h-221z" />
    <glyph glyph-name="igrave" unicode="&#xec;" horiz-adv-x="454" 
d="M-66 1528h277l162 -295h-170zM113 0v1102h229v-1102h-229z" />
    <glyph glyph-name="iacute" unicode="&#xed;" horiz-adv-x="454" 
d="M82 1233l162 295h276l-268 -295h-170zM113 0v1102h229v-1102h-229z" />
    <glyph glyph-name="icircumflex" unicode="&#xee;" horiz-adv-x="454" 
d="M-82 1233l197 295h225l197 -295h-189l-121 182l-121 -182h-188zM113 0v1102h229v-1102h-229z" />
    <glyph glyph-name="idieresis" unicode="&#xef;" horiz-adv-x="454" 
d="M-45 1257v222h221v-222h-221zM113 0v1102h229v-1102h-229zM279 1257v222h221v-222h-221z" />
    <glyph glyph-name="eth" unicode="&#xf0;" 
d="M98 356v287c0 251.333 119 377 357 377c12 0 37 -1.33301 75 -4c-4 45.333 -23.667 100 -59 164l-215 -82l-55 147l190 72c-31.333 46.667 -63.333 84.334 -96 113.001l176 49c34 -24.667 66 -56.334 96 -95.001l224 86l61 -143l-195 -76
c102.667 -181.333 154 -384 154 -608v-287c0 -251.333 -118.833 -377 -356.5 -377s-356.5 125.667 -356.5 377zM328 334c0 -110.667 42.333 -166.001 127 -166.001s127 55.333 127 166v332c0 110.667 -42.333 165.834 -127 165.501s-127 -55.5 -127 -165.5v-332z" />
    <glyph glyph-name="ntilde" unicode="&#xf1;" 
d="M111 0l0.000976562 1102h217v-111l89 73.5c15.333 12.333 40.166 25 74.499 38s72.5 19.5 114.5 19.5c60 0 107.167 -20.5 141.5 -61.5s51.5 -97.5 51.5 -169.5v-891h-230v854c0 53.333 -27.333 80 -82 80c-34 0 -83 -23.333 -147 -70v-864h-229zM121.001 1249
c31.333 161.333 101.668 241.999 211.001 241.999c31.333 0 75.666 -13 132.999 -39c60 -27.333 101 -41 123 -41c30 0 51.5 7.16699 64.5 21.5s20.167 37.166 21.5 68.499h114c-31.333 -161.333 -101.333 -241.666 -210 -240.999c-34 0 -78.667 13.333 -134 40
c-52 26 -93 39 -123 39s-51.333 -7.16699 -64 -21.5s-19.667 -37.166 -21 -68.499h-115z" />
    <glyph glyph-name="ograve" unicode="&#xf2;" 
d="M98 389v324c0 273.333 118.833 409.833 356.5 409.5s356.5 -136.833 356.5 -409.5v-324c0 -273.333 -118.833 -410 -356.5 -410s-356.5 136.667 -356.5 410zM162 1528h276l162 -295h-170zM328 348c0 -120 42.333 -180 127 -180s127 60 127 180v406
c0 120 -42.333 180 -127 180s-127 -60 -127 -180v-406z" />
    <glyph glyph-name="oacute" unicode="&#xf3;" 
d="M98 389v324c0 273.333 118.833 409.833 356.5 409.5s356.5 -136.833 356.5 -409.5v-324c0 -273.333 -118.833 -410 -356.5 -410s-356.5 136.667 -356.5 410zM309 1233l162 295h277l-269 -295h-170zM328 348c0 -120 42.333 -180 127 -180s127 60 127 180v406
c0 120 -42.333 180 -127 180s-127 -60 -127 -180v-406z" />
    <glyph glyph-name="ocircumflex" unicode="&#xf4;" 
d="M98 389v324c0 273.333 118.833 409.833 356.5 409.5s356.5 -136.833 356.5 -409.5v-324c0 -273.333 -118.833 -410 -356.5 -410s-356.5 136.667 -356.5 410zM145 1233l197 295h225l197 -295h-189l-120 182l-121 -182h-189zM328 348c0 -120 42.333 -180 127 -180
s127 60 127 180v406c0 120 -42.333 180 -127 180s-127 -60 -127 -180v-406z" />
    <glyph glyph-name="otilde" unicode="&#xf5;" 
d="M98 389v324c0 273.333 118.833 409.833 356.5 409.5s356.5 -136.833 356.5 -409.5v-324c0 -273.333 -118.833 -410 -356.5 -410s-356.5 136.667 -356.5 410zM121 1249c31.333 161.333 101.668 241.999 211.001 241.999c31.333 0 75.666 -13 132.999 -39
c60 -27.333 101 -41 123 -41c30 0 51.5 7.16699 64.5 21.5s20.167 37.166 21.5 68.499h114c-31.333 -161.333 -101.333 -241.666 -210 -240.999c-34 0 -78.667 13.333 -134 40c-52 26 -93 39 -123 39s-51.333 -7.16699 -64 -21.5s-19.667 -37.166 -21 -68.499h-115z
M328.002 347.999c0 -120 42.333 -180 127 -180s127 60 127 180v406c0 120 -42.333 180 -127 180s-127 -60 -127 -180v-406z" />
    <glyph glyph-name="odieresis" unicode="&#xf6;" 
d="M98 389v324c0 273.333 118.833 409.833 356.5 409.5s356.5 -136.833 356.5 -409.5v-324c0 -273.333 -118.833 -410 -356.5 -410s-356.5 136.667 -356.5 410zM182 1257v222h221v-222h-221zM328 348c0 -120 42.333 -180 127 -180s127 60 127 180v406
c0 120 -42.333 180 -127 180s-127 -60 -127 -180v-406zM506 1257v222h221v-222h-221z" />
    <glyph glyph-name="divide" unicode="&#xf7;" horiz-adv-x="1228" 
d="M96 418v200h1037v-200h-1037zM451 94.5c0 45 16 83.5 48 115.5s70.5 48 115.5 48s83.5 -16 115.5 -48s48 -70.5 48 -115.5s-16 -83.667 -48 -116s-70.5 -48.5 -115.5 -48.5s-83.5 16.167 -115.5 48.5s-48 71 -48 116zM451 942c0 45.333 16 84 48 116s70.5 48 115.5 48
s83.5 -16 115.5 -48s48 -70.667 48 -116s-16 -84 -48 -116s-70.5 -48 -115.5 -48s-83.5 16 -115.5 48s-48 70.667 -48 116z" />
    <glyph glyph-name="oslash" unicode="&#xf8;" 
d="M86 -246l119 314c-70.667 69.333 -106.334 176.333 -107.001 321v324c0 273.333 119 409.666 357 408.999c52 0 100.333 -7.33301 145 -22l84 223h139l-110 -293c65.333 -69.333 98 -175 98 -317v-324c0 -273.333 -118.667 -409.666 -356 -408.999
c-53.333 0 -100.666 7.33301 -141.999 22l-92 -248h-135zM328 354h3.99902l205 551c-19.333 19.333 -46.666 29 -81.999 29c-84.667 0 -127 -60 -127 -180v-400zM376.999 193c22 -16.667 48 -25 78 -25c84.667 0 127 60 127 180v375h-4z" />
    <glyph glyph-name="ugrave" unicode="&#xf9;" 
d="M111 211v891h229v-854c0 -53.333 27.333 -80 82 -80c34 0 83 23.333 147 70v864h230v-1102h-217v111l-89.5 -74c-15.667 -12.667 -40.5 -25.334 -74.5 -38.001s-72.333 -19 -115 -19c-60 0 -107 20.333 -141 61s-51 97.334 -51 170.001zM162 1528h276l162 -295h-170z" />
    <glyph glyph-name="uacute" unicode="&#xfa;" 
d="M111 211v891h229v-854c0 -53.333 27.333 -80 82 -80c34 0 83 23.333 147 70v864h230v-1102h-217v111l-89.5 -74c-15.667 -12.667 -40.5 -25.334 -74.5 -38.001s-72.333 -19 -115 -19c-60 0 -107 20.333 -141 61s-51 97.334 -51 170.001zM309 1233l162 295h277l-269 -295
h-170z" />
    <glyph glyph-name="ucircumflex" unicode="&#xfb;" 
d="M111 211v891h229v-854c0 -53.333 27.333 -80 82 -80c34 0 83 23.333 147 70v864h230v-1102h-217v111l-89.5 -74c-15.667 -12.667 -40.5 -25.334 -74.5 -38.001s-72.333 -19 -115 -19c-60 0 -107 20.333 -141 61s-51 97.334 -51 170.001zM145 1233l197 295h225l197 -295
h-189l-120 182l-121 -182h-189z" />
    <glyph glyph-name="udieresis" unicode="&#xfc;" 
d="M111 211v891h229v-854c0 -53.333 27.333 -80 82 -80c34 0 83 23.333 147 70v864h230v-1102h-217v111l-89.5 -74c-15.667 -12.667 -40.5 -25.334 -74.5 -38.001s-72.333 -19 -115 -19c-60 0 -107 20.333 -141 61s-51 97.334 -51 170.001zM182 1257v222h221v-222h-221z
M506 1257v222h221v-222h-221z" />
    <glyph glyph-name="yacute" unicode="&#xfd;" horiz-adv-x="796" 
d="M20 1102h234.002l147 -705h5l139 705h231l-289 -1184c-24.667 -98 -60.834 -166.5 -108.501 -205.5s-115.834 -58.5 -204.501 -58.5h-96v188h55c56 0 95.333 14.333 118 43s34 73.667 34 135c0 35.333 -8.33301 84 -25 146zM254.002 1233l162 295h276l-268 -295h-170z
" />
    <glyph glyph-name="thorn" unicode="&#xfe;" 
d="M111 -348l-0.00195312 1827h229v-482h4c32.667 45.333 66.167 77.5 100.5 96.5s78.833 28.5 133.5 28.5c72.667 0 129.667 -26.5 171 -79.5s62 -128.833 62 -227.5v-528c0 -98 -20.833 -173.667 -62.5 -227s-98.5 -80 -170.5 -80c-31.333 0 -61.166 5.33301 -89.499 16
s-50.666 21.834 -66.999 33.501s-43.5 33.167 -81.5 64.5v-442h-229zM339.998 224.999c52 -38 95.667 -57 131 -57c74 0 111 59.333 111 178v410c0 118.667 -37 178 -111 178c-35.333 0 -79 -19 -131 -57v-652z" />
    <glyph glyph-name="ydieresis" unicode="&#xff;" horiz-adv-x="796" 
d="M20 1102h234.002l147 -705h5l139 705h231l-289 -1184c-24.667 -98 -60.834 -166.5 -108.501 -205.5s-115.834 -58.5 -204.501 -58.5h-96v188h55c56 0 95.333 14.333 118 43s34 73.667 34 135c0 35.333 -8.33301 84 -25 146zM127.002 1257v222h221v-222h-221z
M451.002 1257v222h221v-222h-221z" />
    <glyph glyph-name="OE" unicode="&#x152;" horiz-adv-x="1478" 
d="M123 451v577c0 146 36.5 257.667 109.5 335s179.833 116 320.5 116h819v-222h-442v-380h344v-222h-344v-434h471v-221h-848c-140.667 0 -247.5 38.667 -320.5 116s-109.5 189 -109.5 335zM377 420c0 -130 52.667 -195 158 -195c94 0 141 51.333 141 154v727
c0 102.667 -47 154 -141 154c-105.333 0 -158 -65 -158 -195v-645z" />
    <glyph glyph-name="oe" unicode="&#x153;" horiz-adv-x="1366" 
d="M98 389l0.000976562 324.001c0 126.667 27 226.5 81 299.5s137.667 109.5 251 109.5c132.667 0 220 -41.667 262 -125c49.333 83.333 130.666 125 243.999 125s197 -36.5 251 -109.5s81 -172.833 81 -299.5v-205h-469v-160c0 -64 8.5 -110 25.5 -138s45.833 -42 86.5 -42
c84.667 0 127 60 127 180v25h230c-2.66699 -122.667 -31 -218.834 -85 -288.501s-136.333 -104.5 -247 -104.5c-117.333 0 -200 42 -248 126c-45.333 -84.667 -131.333 -126.667 -258 -126c-113.333 0 -197 36.5 -251 109.5s-81 172.833 -81 299.5zM328.001 348.001
c0 -120 42.333 -180 127 -180c76.667 0 114.667 60 114 180v406c0 120 -38 180 -114 180c-84.667 0 -127 -60 -127 -180v-406zM799.001 696.001h239v58c0 120 -42.333 180 -127 180c-40.667 0 -69.5 -14 -86.5 -42s-25.5 -74 -25.5 -138v-58z" />
    <glyph glyph-name="Ydieresis" unicode="&#x178;" 
d="M20 1479h259l178 -564h4l170 564h258l-307 -865v-614h-254v614zM182 1581v221h221v-221h-221zM506 1581v221h221v-221h-221z" />
    <glyph glyph-name="circumflex" unicode="&#x2c6;" horiz-adv-x="454" 
d="M-82 1233l197 295h225l197 -295h-189l-121 182l-121 -182h-188z" />
    <glyph glyph-name="tilde" unicode="&#x2dc;" horiz-adv-x="454" 
d="M-106 1249c31.333 161.333 101.332 241.999 209.999 241.999c31.333 0 76 -13 134 -39c60 -27.333 100.667 -41 122 -41c30 0 51.5 7.16699 64.5 21.5s20.167 37.166 21.5 68.499h115c-31.333 -161.333 -101.666 -241.666 -210.999 -240.999
c-34 0 -78.333 13.333 -133 40c-52 26 -93 39 -123 39s-51.5 -7.16699 -64.5 -21.5s-20.167 -37.166 -21.5 -68.499h-114z" />
    <glyph glyph-name="uni2000" unicode="&#x2000;" horiz-adv-x="987" 
 />
    <glyph glyph-name="uni2001" unicode="&#x2001;" horiz-adv-x="1974" 
 />
    <glyph glyph-name="uni2002" unicode="&#x2002;" horiz-adv-x="987" 
 />
    <glyph glyph-name="uni2003" unicode="&#x2003;" horiz-adv-x="1974" 
 />
    <glyph glyph-name="uni2004" unicode="&#x2004;" horiz-adv-x="657" 
 />
    <glyph glyph-name="uni2005" unicode="&#x2005;" horiz-adv-x="493" 
 />
    <glyph glyph-name="uni2006" unicode="&#x2006;" horiz-adv-x="327" 
 />
    <glyph glyph-name="uni2007" unicode="&#x2007;" horiz-adv-x="327" 
 />
    <glyph glyph-name="uni2008" unicode="&#x2008;" horiz-adv-x="245" 
 />
    <glyph glyph-name="uni2009" unicode="&#x2009;" horiz-adv-x="393" 
 />
    <glyph glyph-name="uni200A" unicode="&#x200a;" horiz-adv-x="108" 
 />
    <glyph glyph-name="uni2010" unicode="&#x2010;" horiz-adv-x="681" 
d="M90 457v188h502v-188h-502z" />
    <glyph glyph-name="uni2011" unicode="&#x2011;" horiz-adv-x="681" 
d="M90 457v188h502v-188h-502z" />
    <glyph glyph-name="figuredash" unicode="&#x2012;" horiz-adv-x="681" 
d="M90 457v188h502v-188h-502z" />
    <glyph glyph-name="endash" unicode="&#x2013;" horiz-adv-x="1024" 
d="M0 477v148h1024v-148h-1024z" />
    <glyph glyph-name="emdash" unicode="&#x2014;" horiz-adv-x="2048" 
d="M0 477v148h2048v-148h-2048z" />
    <glyph glyph-name="quoteleft" unicode="&#x2018;" horiz-adv-x="454" 
d="M106 1004v241l142 254h108l-100 -254h92v-241h-242z" />
    <glyph glyph-name="quoteright" unicode="&#x2019;" horiz-adv-x="454" 
d="M98 983l101 254h-93v242h242v-242l-141 -254h-109z" />
    <glyph glyph-name="quotesinglbase" unicode="&#x201a;" horiz-adv-x="454" 
d="M98 -254l101 254h-93v242h242v-242l-141 -254h-109z" />
    <glyph glyph-name="quotedblleft" unicode="&#x201c;" 
d="M143 1004v241l142 254h108l-100 -254h92v-241h-242zM522 1004v241l142 254h108l-100 -254h92v-241h-242z" />
    <glyph glyph-name="quotedblright" unicode="&#x201d;" 
d="M137 983l101 254h-93v242h242v-242l-141 -254h-109zM516 983l100 254h-92v242h242v-242l-141 -254h-109z" />
    <glyph glyph-name="quotedblbase" unicode="&#x201e;" 
d="M137 -254l101 254h-93v242h242v-242l-141 -254h-109zM516 -254l100 254h-92v242h242v-242l-141 -254h-109z" />
    <glyph glyph-name="bullet" unicode="&#x2022;" horiz-adv-x="1024" 
d="M141 739.5c0 102.333 35.833 189.333 107.5 261s158.834 107.5 261.501 107.5s190.167 -35.833 262.5 -107.5s108.5 -158.667 108.5 -261s-36.167 -189.666 -108.5 -261.999s-159.833 -108.5 -262.5 -108.5s-189.834 36.167 -261.501 108.5
s-107.5 159.666 -107.5 261.999z" />
    <glyph glyph-name="ellipsis" unicode="&#x2026;" horiz-adv-x="2048" 
d="M225 0v242h234v-242h-234zM907 0v242h234v-242h-234zM1589 0v242h234v-242h-234z" />
    <glyph glyph-name="uni202F" unicode="&#x202f;" horiz-adv-x="393" 
 />
    <glyph glyph-name="guilsinglleft" unicode="&#x2039;" horiz-adv-x="681" 
d="M129 553l236 313h202l-239 -315l233 -315h-196z" />
    <glyph glyph-name="guilsinglright" unicode="&#x203a;" horiz-adv-x="681" 
d="M115 866h202l236 -313l-236 -317h-196l233 315z" />
    <glyph glyph-name="uni205F" unicode="&#x205f;" horiz-adv-x="493" 
 />
    <glyph glyph-name="trademark" unicode="&#x2122;" horiz-adv-x="2027" 
d="M70 1325v154h688v-154h-246v-690h-197v690h-245zM866 635v844h279l211 -555l211 555h276v-844h-188v618h-4l-226 -618h-141l-225 618h-4v-618h-189z" />
    <glyph glyph-name="uniE000" unicode="&#xe000;" horiz-adv-x="1100" 
d="M0 1100h1100v-1100h-1100v1100z" />
    <glyph glyph-name="uniFB01" unicode="&#xfb01;" 
d="M-8 913v189h135v137c0 173.333 85.333 260 256 260h115v-188h-66c-27.333 0 -46.833 -5.5 -58.5 -16.5s-17.5 -30.167 -17.5 -57.5v-135h131v-189h-131v-913h-229v913h-135zM567 0v1102h230v-1102h-230zM567 1270v209h230v-209h-230z" />
    <glyph glyph-name="uniFB02" unicode="&#xfb02;" 
d="M-8 913v189h135v137c0 173.333 85.333 260 256 260h115v-188h-66c-27.333 0 -46.833 -5.5 -58.5 -16.5s-17.5 -30.167 -17.5 -57.5v-135h131v-189h-131v-913h-229v913h-135zM567 0v1479h230v-1479h-230z" />
    <glyph glyph-name="uniFB03" unicode="&#xfb03;" horiz-adv-x="1593" 
d="M1252 0v1102h229v-1102h-229zM1252 1270v209h229v-209h-229zM589 913v189h136v137c0 173.333 85.333 260 256 260h114v-188h-65c-27.333 0 -46.833 -5.5 -58.5 -16.5s-17.5 -30.167 -17.5 -57.5v-135h131v-189h-131v-913h-229v913h-136zM20 913v189h136v137
c0 173.333 85.333 260 256 260h114v-188h-65c-27.333 0 -46.833 -5.5 -58.5 -16.5s-17.5 -30.167 -17.5 -57.5v-135h131v-189h-131v-913h-229v913h-136z" />
    <glyph glyph-name="uniFB04" unicode="&#xfb04;" horiz-adv-x="1593" 
d="M1252 0v1479h229v-1479h-229zM589 913v189h136v137c0 173.333 85.333 260 256 260h114v-188h-65c-27.333 0 -46.833 -5.5 -58.5 -16.5s-17.5 -30.167 -17.5 -57.5v-135h131v-189h-131v-913h-229v913h-136zM20 913v189h136v137c0 173.333 85.333 260 256 260h114v-188h-65
c-27.333 0 -46.833 -5.5 -58.5 -16.5s-17.5 -30.167 -17.5 -57.5v-135h131v-189h-131v-913h-229v913h-136z" />
    <glyph glyph-name=".null" horiz-adv-x="0" 
 />
    <glyph glyph-name="nonmarkingreturn" horiz-adv-x="682" 
 />
    </font>
</defs>
</svg>
